<svg xmlns="http://www.w3.org/2000/svg" xmlns:xlink="http://www.w3.org/1999/xlink" width="464.516" height="333.402" viewBox="0 0 464.516 333.402"><defs><filter id="a" x="0" y="0" width="464.516" height="324.639" filterUnits="userSpaceOnUse"><feOffset dy="20" input="SourceAlpha"/><feGaussianBlur stdDeviation="25" result="b"/><feFlood flood-opacity="0.502"/><feComposite operator="in" in2="b"/><feComposite in="SourceGraphic"/></filter><filter id="c" x="39.716" y="139.495" width="390.275" height="193.906" filterUnits="userSpaceOnUse"><feOffset dy="20" input="SourceAlpha"/><feGaussianBlur stdDeviation="25" result="d"/><feFlood flood-opacity="0.502"/><feComposite operator="in" in2="d"/><feComposite in="SourceGraphic"/></filter></defs><g transform="translate(-675.855 -2676.285)"><g transform="translate(750.855 2692.258)"><g transform="matrix(1, 0, 0, 1, -75, -15.97)" filter="url(#a)"><path d="M1887.139,2047.356c25.634,20.649,87.489,45.909,131.018,24.922s57.22,68.4,8.8,101.865-26.265,38.225-132.263,37.052-84.893-7.739-134.608-63.083,23.805-40.231,36.622-75.834S1861.505,2026.707,1887.139,2047.356Z" transform="translate(-1668.03 -1981.71)" fill="#b3aae2"/></g><g transform="translate(8.31 0)"><g transform="translate(0)"><g transform="translate(210.687 58.947) rotate(21)"><path d="M6,7.436C-.058,16.36-2.5,38.66,3.3,48.806S9.318,72.454,6,81.565-.414,97.3,6,114.7.414,146.843,6,155.281s19.671,8.438,25.262,0-5.177-20.707,0-40.585,3.52-21.535,0-33.131-3.986-23.225.282-35.222,3.205-28.051-3.181-38.907S12.067-1.489,6,7.436Z" transform="translate(0 0)" fill="#4cd137"/><path d="M8.939,0C7.129,5.555.908,13.43.908,23.264S5.328,37.672,5.592,52.4.445,67.538.029,82.832s3.713,19.037,3.9,30.741S.779,129.647.779,129.647" transform="matrix(0.999, -0.035, 0.035, 0.999, 11.406, 15.16)" fill="none" stroke="#449f36" stroke-linecap="round" stroke-width="3"/></g><g transform="translate(0 14.209) rotate(-7)"><g transform="translate(0 0)"><path d="M8.209,10.165c-8.287,12.2-11.626,42.684-3.7,56.555s8.229,32.328,3.7,44.783-8.775,21.513,0,45.29-7.643,43.946,0,55.481,26.891,11.535,34.534,0-7.077-28.307,0-55.481,4.812-29.439,0-45.29-5.449-31.749.385-48.15S47.51,25.005,38.78,10.165,16.5-2.036,8.209,10.165Z" transform="translate(0 15.38) rotate(-19)" fill="#4cd137"/><path d="M8.939,0C7.129,7.274.908,17.586.908,30.464S5.328,49.332,5.592,68.615.445,88.442.029,108.47s3.713,24.929,3.9,40.255S.779,169.775.779,169.775" transform="translate(31.154 46.955) rotate(-22)" fill="none" stroke="#449f36" stroke-linecap="round" stroke-width="3"/></g></g></g><g transform="translate(37.944 78.157)"><path d="M1309.223,2671.024c-2,6.124-7.984,3.433-7.984,14.274s7.984,10.1,7.984,18.871-7.984,8.166-7.984,16.21,7.984,6.593,7.984,15.968-7.984,10.161-7.984,21.533,5.988,11.916,7.984,17.9-7.984,15.968-7.984,15.968" transform="translate(-1281.215 -2657.052)" fill="none" stroke="#707070" stroke-linecap="round" stroke-width="3"/><line y1="10.589" x2="7.677" transform="translate(27.132 105.802)" fill="none" stroke="#707070" stroke-linecap="round" stroke-width="3"/><line x1="7.677" y1="10.589" transform="translate(12.36 90.183)" fill="none" stroke="#707070" stroke-linecap="round" stroke-width="3"/><line x1="7.677" y1="10.589" transform="translate(12.36 53.705)" fill="none" stroke="#707070" stroke-linecap="round" stroke-width="3"/><line x1="7.677" y1="10.589" transform="translate(12.36 17.227)" fill="none" stroke="#707070" stroke-linecap="round" stroke-width="3"/><line y1="10.589" x2="7.677" transform="translate(27.767 71.547)" fill="none" stroke="#707070" stroke-linecap="round" stroke-width="3"/><line y1="10.589" x2="7.677" transform="translate(28.032 35.122)" fill="none" stroke="#707070" stroke-linecap="round" stroke-width="3"/><g transform="matrix(0.799, -0.602, 0.602, 0.799, 0, 46.67)"><path d="M0,0C11.93,16.3,0,16.655,0,16.655Z" transform="translate(5.299 0)" fill="#f7d881"/><path d="M5.3,0c-11.93,16.3,0,16.655,0,16.655Z" transform="translate(0 0)" fill="#f9e8b8"/></g><g transform="matrix(0.799, -0.602, 0.602, 0.799, 0.159, 10.827)"><path d="M0,0C11.93,16.3,0,16.655,0,16.655Z" transform="translate(5.299 0)" fill="#f7d881"/><path d="M5.3,0c-11.93,16.3,0,16.655,0,16.655Z" transform="translate(0 0)" fill="#f9e8b8"/></g><g transform="matrix(0.799, -0.602, 0.602, 0.799, 0, 83.148)"><path d="M0,0C11.93,16.3,0,16.655,0,16.655Z" transform="translate(5.299 0)" fill="#f7d881"/><path d="M5.3,0c-11.93,16.3,0,16.655,0,16.655Z" transform="translate(0 0)" fill="#f9e8b8"/></g><g transform="matrix(-0.799, -0.602, 0.602, -0.799, 38.856, 109.844)"><path d="M0,16.655C11.93.354,0,0,0,0Z" transform="translate(5.299 0)" fill="#f7d881"/><path d="M5.3,16.655C-6.628.354,5.3,0,5.3,0Z" transform="translate(0 0)" fill="#f9e8b8"/></g><g transform="matrix(-0.799, -0.602, 0.602, -0.799, 38.856, 76.808)"><path d="M0,16.655C11.93.354,0,0,0,0Z" transform="translate(5.299 0)" fill="#f7d881"/><path d="M5.3,16.655C-6.628.354,5.3,0,5.3,0Z" transform="translate(0 0)" fill="#f9e8b8"/></g><g transform="matrix(-0.799, -0.602, 0.602, -0.799, 38.856, 40.435)"><path d="M0,16.655C11.93.354,0,0,0,0Z" transform="translate(5.299 0)" fill="#f7d881"/><path d="M5.3,16.655C-6.628.354,5.3,0,5.3,0Z" transform="translate(0 0)" fill="#f9e8b8"/></g><g transform="matrix(-0.799, -0.602, 0.602, -0.799, 31.338, 19.681)"><path d="M0,16.655C11.93.354,0,0,0,0Z" transform="translate(5.299 0)" fill="#f7d881"/><path d="M5.3,16.655C-6.628.354,5.3,0,5.3,0Z" transform="translate(0 0)" fill="#f9e8b8"/></g></g><g transform="translate(204.91 32.74)"><path d="M1311.361,2671.024c-2.53,7.763-10.122,4.352-10.122,18.1s10.122,12.806,10.122,23.924-10.122,10.352-10.122,20.55,10.122,8.358,10.122,20.244-10.122,12.882-10.122,27.3,7.591,15.106,10.122,22.7-10.122,20.244-10.122,20.244" transform="translate(-1275.854 -2653.311)" fill="none" stroke="#707070" stroke-linecap="round" stroke-width="3"/><line y1="13.424" x2="9.732" transform="translate(34.397 134.131)" fill="none" stroke="#707070" stroke-linecap="round" stroke-width="3"/><line x1="9.732" y1="13.424" transform="translate(15.67 114.331)" fill="none" stroke="#707070" stroke-linecap="round" stroke-width="3"/><line x1="9.732" y1="13.424" transform="translate(15.67 68.085)" fill="none" stroke="#707070" stroke-linecap="round" stroke-width="3"/><line x1="9.732" y1="13.424" transform="translate(15.67 21.84)" fill="none" stroke="#707070" stroke-linecap="round" stroke-width="3"/><line y1="13.424" x2="9.732" transform="translate(35.202 90.705)" fill="none" stroke="#707070" stroke-linecap="round" stroke-width="3"/><line y1="13.424" x2="9.732" transform="translate(35.538 44.526)" fill="none" stroke="#707070" stroke-linecap="round" stroke-width="3"/><g transform="matrix(0.799, -0.602, 0.602, 0.799, 0, 59.167)"><path d="M0,0C15.125,20.666,0,21.115,0,21.115Z" transform="translate(6.718 0)" fill="#f7d881"/><path d="M6.722,0c-15.125,20.666,0,21.115,0,21.115Z" transform="translate(0 0)" fill="#f9e8b8"/></g><g transform="matrix(0.799, -0.602, 0.602, 0.799, 0.201, 13.726)"><path d="M0,0C15.125,20.666,0,21.115,0,21.115Z" transform="translate(6.718 0)" fill="#f7d881"/><path d="M6.722,0c-15.125,20.666,0,21.115,0,21.115Z" transform="translate(0 0)" fill="#f9e8b8"/></g><g transform="matrix(0.799, -0.602, 0.602, 0.799, 0, 105.412)"><path d="M0,0C15.125,20.666,0,21.115,0,21.115Z" transform="translate(6.718 0)" fill="#f7d881"/><path d="M6.722,0c-15.125,20.666,0,21.115,0,21.115Z" transform="translate(0 0)" fill="#f9e8b8"/></g><g transform="matrix(-0.799, -0.602, 0.602, -0.799, 49.26, 139.257)"><path d="M0,21.115C15.125.449,0,0,0,0Z" transform="translate(6.718 0)" fill="#f7d881"/><path d="M6.722,21.115C-8.4.449,6.722,0,6.722,0Z" transform="translate(0 0)" fill="#f9e8b8"/></g><g transform="matrix(-0.799, -0.602, 0.602, -0.799, 49.26, 97.374)"><path d="M0,21.115C15.125.449,0,0,0,0Z" transform="translate(6.718 0)" fill="#f7d881"/><path d="M6.722,21.115C-8.4.449,6.722,0,6.722,0Z" transform="translate(0 0)" fill="#f9e8b8"/></g><g transform="matrix(-0.799, -0.602, 0.602, -0.799, 49.26, 51.262)"><path d="M0,21.115C15.125.449,0,0,0,0Z" transform="translate(6.718 0)" fill="#f7d881"/><path d="M6.722,21.115C-8.4.449,6.722,0,6.722,0Z" transform="translate(0 0)" fill="#f9e8b8"/></g><g transform="matrix(-0.799, -0.602, 0.602, -0.799, 39.729, 24.951)"><path d="M0,21.115C15.125.449,0,0,0,0Z" transform="translate(6.718 0)" fill="#f7d881"/><path d="M6.722,21.115C-8.4.449,6.722,0,6.722,0Z" transform="translate(0 0)" fill="#f9e8b8"/></g></g></g><g transform="matrix(1, 0, 0, 1, -75, -15.97)" filter="url(#c)"><path d="M94.419,288.679c65.171,0,120.846,44.51,119.017,43.9s-53.846,0-119.017,0-121.214-.61-121.214,0S29.248,288.679,94.419,288.679Z" transform="translate(141.51 -94.18)" fill="#7d6eca"/></g></g><g transform="translate(843.644 2757.071)"><path d="M33.561,0h3A37.876,37.876,0,0,1,74.433,37.876v0a0,0,0,0,1,0,0H0a0,0,0,0,1,0,0V33.561A33.561,33.561,0,0,1,33.561,0Z" transform="translate(33.441 119.741)" fill="#d87e4b"/><path d="M0,0H26.249a0,0,0,0,1,0,0V9.469A11.866,11.866,0,0,1,14.383,21.335h0A14.383,14.383,0,0,1,0,6.952V0A0,0,0,0,1,0,0Z" transform="translate(53.937 111.59)" fill="#e7b598"/><path d="M10.35,0H84.382a0,0,0,0,1,0,0V31.949A41.765,41.765,0,0,1,42.617,73.714h0A42.617,42.617,0,0,1,0,31.1V10.35A10.35,10.35,0,0,1,10.35,0Z" transform="translate(15.582 43.869)" fill="#f3d1b0"/><g transform="translate(0 0)"><path d="M0,0H76.231A20.736,20.736,0,0,1,96.967,20.736v4.435a0,0,0,0,1,0,0h-71.8A25.171,25.171,0,0,1,0,0V0A0,0,0,0,1,0,0Z" transform="translate(2.997)" fill="#59534b"/><path d="M0,0H99.087a8.787,8.787,0,0,1,8.787,8.787V25.171a0,0,0,0,1,0,0h-82.7A25.171,25.171,0,0,1,0,0V0A0,0,0,0,1,0,0Z" transform="translate(0 20.376)" fill="#6b6359"/><path d="M0,0H0A9.109,9.109,0,0,1,9.109,9.109V30.924a0,0,0,0,1,0,0H0a0,0,0,0,1,0,0V0A0,0,0,0,1,0,0Z" transform="translate(99.964 20.376)" fill="#6b6359"/></g><path d="M0,0H5.094a13,13,0,0,1,13,13v0a13,13,0,0,1-13,13H0a0,0,0,0,1,0,0V0A0,0,0,0,1,0,0Z" transform="translate(99.964 51.3)" fill="#e7b598"/><path d="M3195.45,2126.7h38.244s2.934,18.542-17.826,18.8S3195.45,2126.7,3195.45,2126.7Z" transform="translate(-3159.917 -2037.077)" fill="#fff"/><g transform="translate(24.571 50.222)"><path d="M14.084,28.167a14.188,14.188,0,0,1-2.838-.286,14.007,14.007,0,0,1-5.036-2.119,14.125,14.125,0,0,1-5.1-6.2,14.012,14.012,0,0,1-.821-2.644,14.221,14.221,0,0,1,0-5.677A14.007,14.007,0,0,1,2.405,6.209a14.125,14.125,0,0,1,6.2-5.1A14.012,14.012,0,0,1,11.245.286a14.221,14.221,0,0,1,5.677,0,14.006,14.006,0,0,1,5.036,2.119,14.125,14.125,0,0,1,5.1,6.2,14.012,14.012,0,0,1,.821,2.644,14.221,14.221,0,0,1,0,5.677,14.007,14.007,0,0,1-2.119,5.036,14.125,14.125,0,0,1-6.2,5.1,14.013,14.013,0,0,1-2.644.821A14.187,14.187,0,0,1,14.084,28.167Zm0-27.088a13,13,0,1,0,13,13A13.02,13.02,0,0,0,14.084,1.079Z" transform="translate(0 0)" fill="#595353"/><path d="M14.084,28.167a14.188,14.188,0,0,1-2.838-.286,14.007,14.007,0,0,1-5.036-2.119,14.125,14.125,0,0,1-5.1-6.2,14.012,14.012,0,0,1-.821-2.644,14.221,14.221,0,0,1,0-5.677A14.007,14.007,0,0,1,2.405,6.209a14.125,14.125,0,0,1,6.2-5.1A14.012,14.012,0,0,1,11.245.286a14.221,14.221,0,0,1,5.677,0,14.006,14.006,0,0,1,5.036,2.119,14.125,14.125,0,0,1,5.1,6.2,14.012,14.012,0,0,1,.821,2.644,14.221,14.221,0,0,1,0,5.677,14.007,14.007,0,0,1-2.119,5.036,14.125,14.125,0,0,1-6.2,5.1,14.013,14.013,0,0,1-2.644.821A14.187,14.187,0,0,1,14.084,28.167Zm0-27.088a13,13,0,1,0,13,13A13.02,13.02,0,0,0,14.084,1.079Z" transform="translate(32.003 0)" fill="#595353"/><rect width="5.993" height="1.079" transform="translate(27.088 14.144)" fill="#595353"/></g><g transform="translate(33.441 61.728)"><circle cx="3.776" cy="3.776" r="3.776" fill="#6b6359"/><circle cx="3.776" cy="3.776" r="3.776" transform="translate(29.725)" fill="#6b6359"/></g></g></g></svg>