<svg xmlns="http://www.w3.org/2000/svg" xmlns:xlink="http://www.w3.org/1999/xlink" width="1941.759" height="1080" viewBox="0 0 1941.759 1080"><defs><style>.a{fill:#2f2e3f;}.b{fill:#8a2be2;}.c{fill:#a25de2;}.d{fill:#b181dd;}.e{fill:url(#a);}.f{fill:#9c88ff;}.g{fill:url(#d);}.h{fill:#d87e4b;}.i{fill:#e7b598;}.j{fill:#f3d1b0;}.k{fill:#59534b;}.l{fill:#6b6359;}.m{fill:#fff;}.n{fill:#707070;}.o{fill:none;stroke:#707070;stroke-linecap:round;stroke-width:2px;}.p{filter:url(#g);}.q{filter:url(#e);}.r{filter:url(#b);}</style><linearGradient id="a" x1="1" y1="0.679" x2="0" y2="0.691" gradientUnits="objectBoundingBox"><stop offset="0" stop-color="#ff2a47"/><stop offset="1" stop-color="#f7b500"/></linearGradient><filter id="b" x="33.523" y="244.881" width="755.481" height="620.721" filterUnits="userSpaceOnUse"><feOffset dy="50" input="SourceAlpha"/><feGaussianBlur stdDeviation="40" result="c"/><feFlood flood-opacity="0.502"/><feComposite operator="in" in2="c"/><feComposite in="SourceGraphic"/></filter><linearGradient id="d" x1="0.916" y1="0.063" x2="0.117" y2="0.872" gradientUnits="objectBoundingBox"><stop offset="0" stop-color="#f7b102"/><stop offset="1" stop-color="#fe3242"/></linearGradient><filter id="e" x="0" y="220.135" width="822.525" height="670.236" filterUnits="userSpaceOnUse"><feOffset dy="50" input="SourceAlpha"/><feGaussianBlur stdDeviation="40" result="f"/><feFlood flood-opacity="0.502"/><feComposite operator="in" in2="f"/><feComposite in="SourceGraphic"/></filter><filter id="g" x="341.714" y="556.072" width="189.315" height="125.803" filterUnits="userSpaceOnUse"><feOffset dx="5" dy="10" input="SourceAlpha"/><feGaussianBlur stdDeviation="10" result="h"/><feFlood flood-opacity="0.4"/><feComposite operator="in" in2="h"/><feComposite in="SourceGraphic"/></filter></defs><g transform="translate(21.759 -1722)"><path class="a" d="M0,0H1920V1077.105H0Z" transform="translate(0 1722)"/><path class="b" d="M5976.506,1235.326c61.944-157.64,117.877-215.578,286.191-325.611s264.009-53.077,386.56-114.534,102.065-125.3,101.542-127.72c0,0,142.733.016,142.729,0,16.807,61.457,43.649,140.291-56.493,242.255s-249.172,61.833-368.221,177.765-124.883,285.96-124.883,285.96,4.429,293.017-166.616,345.138c-.049.119-201.17.429-201.215.4S5976.5,1235.329,5976.506,1235.326Z" transform="translate(-5976 1080)"/><path class="c" d="M5976.506,1250.393c71.56-181.442,117.877-221.311,286.191-334.269s264.009-54.488,386.56-117.58,99.7-128.973,99.181-131.461c0,0,145.005.016,145,0,16.807,63.092,43.737,144.366-56.4,249.041s-249.172,63.478-368.221,182.492-124.883,293.565-124.883,293.565l-146.021,325.9H5895.8S5904.947,1431.835,5976.506,1250.393Z" transform="translate(-5847 1080)"/><path class="d" d="M5976.506,1250.394c71.56-181.443,117.877-221.312,286.191-334.271s264.009-54.489,386.56-117.581,100.9-129.352,100.372-131.839c0,0,143.112.016,143.108,0,16.807,63.092,44.439,144.744-55.7,249.42s-249.172,63.478-368.221,182.493-114.63,133.047-124.883,293.566-71.664,308.805-102.73,327.029c-.084.06-337.078,0-337.078,0S5904.947,1431.837,5976.506,1250.394Z" transform="translate(-5726 1080)"/><path class="e" d="M8301.225-1309.753c1833.277-8.718,1838.288,84.819,1920-323.267-.042,0,0,351.894,0,351.894l-1920-.154Z" transform="translate(-8301.225 4083.126)"/><g class="r" transform="matrix(1, 0, 0, 1, -21.76, 1722)"><path class="f" d="M8301.309,2398.524c66.684-138.4,189.982-40.261,205.081-91.845,13.84-39,11.293-45.217,182.4-36.487,161.078,13.432,105.72,197.531,70.491,196.273-54.1,0,49.068,127.074-70.491,167.335s-206.3-21.389-319.538-21.389S8277.4,2457.657,8301.309,2398.524Z" transform="translate(-8128.76 -1951.84)"/></g><g class="q" transform="matrix(1, 0, 0, 1, -21.76, 1722)"><path class="g" d="M365.349,430.236c-10.8,0-21.668-.542-33.218-1.656-10.3-.993-20.922-2.424-32.474-4.374-21.475-3.625-43.1-8.566-64.008-13.346-43.485-9.939-88.45-20.216-137.365-20.216-34.162,0-59.917-12.506-76.55-37.171C13,340.516,6.8,324.187,3.323,304.942.263,288.015-.69,268.971.49,248.34c.528-9.241,1.491-18.781,2.859-28.357,1.28-8.958,2.92-17.978,4.874-26.811a285.221,285.221,0,0,1,13.285-44.231,224.338,224.338,0,0,1,14.311-25.507A169.67,169.67,0,0,1,51.284,103.2,137.214,137.214,0,0,1,67.658,87.66,121.6,121.6,0,0,1,84.694,76.24a119.6,119.6,0,0,1,17.45-7.878,129.965,129.965,0,0,1,17.621-4.913,171.358,171.358,0,0,1,34.763-3.238c11.946,0,23.654.931,34.623,1.884l2.091.182.508.044c9.744.852,18.946,1.657,27,1.657,9.772,0,16.817-1.2,22.171-3.766,6.205-2.978,10.24-7.9,12.335-15.062.379-1.069.75-2.124,1.109-3.144l.092-.262c2.64-7.507,4.917-13.986,8-19.32a35.343,35.343,0,0,1,5.413-7.219A32.693,32.693,0,0,1,275.484,9.5c12.2-6.745,32.807-9.5,71.123-9.5,25.216,0,58.943,1.172,112.775,3.919a197.894,197.894,0,0,1,33.666,5.6,143.937,143.937,0,0,1,27.446,10.151,114.892,114.892,0,0,1,21.724,13.952,103.979,103.979,0,0,1,16.5,17.006,111.719,111.719,0,0,1,19.3,40.183,147.706,147.706,0,0,1,4.36,43.431,173.763,173.763,0,0,1-5,34.677,150.636,150.636,0,0,1-10.4,29.181c-4.087,8.382-8.733,15.34-13.436,20.122a30.508,30.508,0,0,1-7.116,5.55,14.8,14.8,0,0,1-6.988,1.95c-.135,0-.268,0-.407-.007-6.836,0-11.673,1.779-14.788,5.439-3.286,3.861-4.693,9.816-4.427,18.739.24,8.062,1.833,17.9,3.521,28.316v.011c1.821,11.246,3.885,23.992,4.614,36.794.836,14.685-.211,27.234-3.2,38.366a80.485,80.485,0,0,1-7.307,18.207,77.011,77.011,0,0,1-12.592,16.724,94.022,94.022,0,0,1-18.986,14.616,139.543,139.543,0,0,1-26.491,11.883A290.061,290.061,0,0,1,365.349,430.236ZM161.258,67.832c-26.488,0-47.587,4.844-66.4,15.242a122.4,122.4,0,0,0-31.766,25.633C52.546,120.461,43.02,135.093,34.78,152.2,26.571,172.506,17.01,208,14.8,246.7c-1.684,29.442.454,70.683,20.2,99.962,15.814,23.451,40.3,35.342,72.784,35.342,11.171,0,22.344.543,34.156,1.661,10.51.995,21.281,2.424,32.928,4.371,21.624,3.614,42.918,8.482,63.512,13.189h.006c19.877,4.544,40.431,9.242,60.843,12.687,10.979,1.853,21.079,3.214,30.873,4.159,10.979,1.059,21.31,1.574,31.581,1.574h.025a275.83,275.83,0,0,0,89.405-14.662c34.378-11.576,54.711-30.682,62.161-58.409,2.843-10.582,3.839-22.514,3.044-36.479-.693-12.17-2.655-24.287-4.386-34.978l0-.014c-1.6-9.9-3.12-19.258-3.348-26.927-.253-8.484,1.085-14.146,4.209-17.817,2.962-3.48,7.561-5.171,14.06-5.171.128,0,.262.007.388.007a14.069,14.069,0,0,0,6.644-1.853,29.04,29.04,0,0,0,6.767-5.276c4.469-4.545,8.887-11.16,12.774-19.129,8.417-17.255,13.754-39.383,14.642-60.71,1.424-34.21-7.122-114.769-116.953-123.927-51.184-2.612-83.251-3.726-107.225-3.726-36.433,0-56.025,2.615-67.625,9.024a31.071,31.071,0,0,0-7.23,5.425,33.534,33.534,0,0,0-5.146,6.861c-2.935,5.073-5.1,11.231-7.607,18.362l-.083.235c-.345.98-.7,1.993-1.066,3.021C253.138,60.316,249.3,65,243.4,67.833c-5.09,2.443-11.788,3.581-21.079,3.581-7.664,0-16.409-.765-25.668-1.575l-2.48-.217c-10.858-.943-21.545-1.791-32.9-1.791Z" transform="translate(120 290.13)"/></g><g transform="translate(286.857 2090.044)"><g transform="translate(0 0)"><g class="p" transform="matrix(1, 0, 0, 1, -308.62, -368.04)"><path class="h" d="M58.306,0h5.206a65.8,65.8,0,0,1,65.8,65.8v0a0,0,0,0,1,0,0H0a0,0,0,0,1,0,0v-7.5A58.306,58.306,0,0,1,58.306,0Z" transform="translate(366.71 576.07)"/></g><path class="i" d="M0,0H45.6a0,0,0,0,1,0,0V16.451A20.615,20.615,0,0,1,24.988,37.066h0A24.988,24.988,0,0,1,0,12.078V0A0,0,0,0,1,0,0Z" transform="translate(93.706 193.868)"/><path class="j" d="M17.981,0H146.6a0,0,0,0,1,0,0V55.507A72.559,72.559,0,0,1,74.04,128.065h0A74.04,74.04,0,0,1,0,54.026V17.981A17.981,17.981,0,0,1,17.981,0Z" transform="translate(27.071 76.214)"/><path class="k" d="M0,0H132.438a36.025,36.025,0,0,1,36.025,36.025v7.7a0,0,0,0,1,0,0H43.73A43.73,43.73,0,0,1,0,0V0A0,0,0,0,1,0,0Z" transform="translate(5.206)"/><path class="l" d="M0,0H172.146a15.267,15.267,0,0,1,15.267,15.267V43.73a0,0,0,0,1,0,0H43.73A43.73,43.73,0,0,1,0,0V0A0,0,0,0,1,0,0Z" transform="translate(0 35.4)"/><path class="l" d="M0,0H0A15.826,15.826,0,0,1,15.826,15.826v37.9a0,0,0,0,1,0,0H0a0,0,0,0,1,0,0V0A0,0,0,0,1,0,0Z" transform="translate(173.669 35.4)"/><path class="i" d="M0,0H8.85A22.594,22.594,0,0,1,31.444,22.594v0A22.594,22.594,0,0,1,8.85,45.187H0a0,0,0,0,1,0,0V0A0,0,0,0,1,0,0Z" transform="translate(173.669 89.125)"/><path class="m" d="M3195.45,2126.7h66.442s5.1,32.214-30.969,32.658S3195.45,2126.7,3195.45,2126.7Z" transform="translate(-3133.718 -1970.999)"/><g transform="translate(58.098 107.242)"><circle class="l" cx="6.559" cy="6.559" r="6.559"/><circle class="l" cx="6.559" cy="6.559" r="6.559" transform="translate(51.643)"/></g></g><g transform="translate(34.057 93.049)"><path class="n" d="M27.8,48.989a23.681,23.681,0,0,1-13.985-4.225,27.964,27.964,0,0,1-8.484-10.12A52.216,52.216,0,0,1,0,12.048C0,7.054,2.841,3.734,8.687,1.9,14,.23,21.011,0,27.8,0S41.6.23,46.908,1.9c5.845,1.836,8.687,5.155,8.687,10.149a52.216,52.216,0,0,1-5.328,22.6,27.975,27.975,0,0,1-8.484,10.12A23.684,23.684,0,0,1,27.8,48.989Zm0-46.453c-12.056,0-24.919.835-24.919,10.8A46.8,46.8,0,0,0,7.655,33.593c4.443,8.533,11.22,12.86,20.142,12.86s15.7-4.327,20.142-12.86a46.8,46.8,0,0,0,4.777-20.257C52.717,3.371,39.853,2.536,27.8,2.536Z" transform="translate(0 0)"/><path class="n" d="M27.8,48.989a23.681,23.681,0,0,1-13.985-4.225,27.964,27.964,0,0,1-8.484-10.12A52.216,52.216,0,0,1,0,12.048C0,7.054,2.841,3.734,8.687,1.9,14,.23,21.011,0,27.8,0S41.6.23,46.908,1.9c5.845,1.836,8.687,5.155,8.687,10.149a52.216,52.216,0,0,1-5.328,22.6,27.975,27.975,0,0,1-8.484,10.12A23.684,23.684,0,0,1,27.8,48.989Zm0-46.453c-12.056,0-24.919.835-24.919,10.8A46.8,46.8,0,0,0,7.655,33.593c4.443,8.533,11.22,12.86,20.142,12.86s15.7-4.327,20.142-12.86a46.8,46.8,0,0,0,4.777-20.257C52.717,3.371,39.853,2.536,27.8,2.536Z" transform="translate(62.544 0)"/><line class="o" x2="8.687" transform="translate(54.726 11.179)"/></g></g></g></svg>