<svg xmlns="http://www.w3.org/2000/svg" xmlns:xlink="http://www.w3.org/1999/xlink" width="1920" height="642" viewBox="0 0 1920 642"><defs><style>.a{fill:url(#a);}.b{fill:url(#b);}.c{opacity:0.67;fill:url(#c);}.d{fill:#464646;}.e{fill:#3d3d3d;}.f{fill:#303030;}.g{fill:none;stroke:#303030;stroke-linecap:round;stroke-width:3px;}</style><linearGradient id="a" x1="0.5" x2="0.5" y2="1.1" gradientUnits="objectBoundingBox"><stop offset="0" stop-color="#060510"/><stop offset="1" stop-color="#7c32ff"/></linearGradient><radialGradient id="b" cx="0.5" cy="0.5" r="0.565" gradientTransform="translate(0 0.028) scale(1 0.945)" gradientUnits="objectBoundingBox"><stop offset="0" stop-color="#fff"/><stop offset="1" stop-color="#3abeff"/></radialGradient><linearGradient id="c" x1="0.255" y1="0.081" x2="0.795" y2="0.898" gradientUnits="objectBoundingBox"><stop offset="0" stop-color="#fff"/><stop offset="1" stop-color="#8d46f9"/></linearGradient></defs><g transform="translate(0 -1080)"><g transform="translate(0 1080)"><rect class="a" width="1920" height="642" transform="translate(0)"/><g transform="translate(556 119.433)"><circle class="b" cx="84" cy="84" r="84" transform="translate(0 0)"/><circle class="c" cx="84" cy="84" r="84" transform="translate(0 0)"/></g><path class="d" d="M3564.585,431.467c133.736-127.034,621.027,49.339,841.391-16.392s439.521,95.21,588.643,74.972,266.834-110.621,489.21-91.594c.048-.437.4,329.744,0,330.011.079-.165-1919.492-.124-1919.492-.124Z" transform="translate(-3564.02 -86.617)"/><path class="e" d="M3590.272,439.407c261.393-171.633,602.358,24.355,825.986-28.955s446.032,77.219,597.363,60.8,270.788-86.847,496.457-71.415c.049-.354.41,264.563,0,264.779.081-.134-1919.806-1.384-1919.806-1.384Z" transform="translate(-3590.271 -22.774)"/><path class="f" d="M3696.309,411.926c275.467-129.359,531.414,33.82,767.083-6.359s470.047,58.2,629.527,45.828,285.368-65.456,523.187-53.825c.052-.267.433,199.4,0,199.562.085-.1-1919.8-.3-1919.8-.3Z" transform="translate(-3696.309 44.716)"/><path class="f" d="M4474.518,328.344c4.519,51.043,21.259,105.075,21.259,105.075h47.564s-23.732-76.156-28.066-109.592,46.911-62.293,60.017-66.661,29.639,0,29.639,0,35.278,6.693,41.224,7.065c2.428.152-22.229-7.065-22.229-7.065s24.313-25.514,24.3-25.5c.026.02-26.8,22.161-26.8,22.161s-31.562-.169-29.366-6.832c1.77-5.37,18.724-17.753,18.726-17.743s-38.077,22.231-38.077,22.231-56.52,23.479-62.462,29.247-8.769-26.752-4.979-51.478,58.692-81.779,79.272-97.467,69.889-27.562,69.889-27.562l-52.663,12.3,36.076-49.006s-28.437,41.883-62.547,61.174c-5.59,3.161,0-53.877,0-53.877s-8.4,35.99-6.46,53.877-53.606,55.083-56.286,57.783c-8.475,8.539-28.249.874-7.28-45.431,11.491-25.375,28.117-52.887,38.077-72.821,2.907-5.818,3.3-14.473,4.64-19.353a98.1,98.1,0,0,1,4.483-13,39.173,39.173,0,0,0-6.339,11.546c-2.158,6.029-2.925,14.678-7.158,20.811-5.838,8.458-11.917,24.641-18.39,17.08-3.214-6.709-17.617-27.228-33.055-45.578a218.557,218.557,0,0,0-31.162-30.288L4477.7,38.354l-19.938-2.489s21.1,3.121,34.5,19.066,27.449,37.717,25.848,42.951c-2.856,9.333-24.2,53.938-30.59,41.573s-81.565-64.64-81.565-64.64,74.112,54.11,73.75,82.885,12.833,49.524,4.658,43.362-64.765-11.1-81.46-29.7-27.58-23.07-27.58-23.07,16.132,11.448,22.723,23.07-29.829-5.94-47.174-8.2c-18.414-8.512-21.857-16.565-21.857-16.565s6.259,11.523,13.6,14.961-29.621-1.342-29.621-1.342,7.871,3.38,33.89,7.543,68.294,21.422,68.294,21.422l-32.095,3.77h38.442l34.835,15.193s16.8,7.505,21.342,21.1S4470,277.3,4474.518,328.344Z" transform="translate(-3779 70)"/><g transform="translate(776.639 328.715) rotate(13)"><path class="g" d="M7.984,0C5.988,6.124,0,3.433,0,14.274s7.984,10.1,7.984,18.871S0,41.311,0,49.356s7.984,6.593,7.984,15.968S0,75.485,0,86.856s5.988,11.916,7.984,17.9S0,120.728,0,120.728" transform="translate(20.024 13.972)"/><line class="g" y1="10.589" x2="7.677" transform="translate(27.132 105.802)"/><line class="g" x1="7.677" y1="10.589" transform="translate(12.36 90.183)"/><line class="g" x1="7.677" y1="10.589" transform="translate(12.36 53.705)"/><line class="g" x1="7.677" y1="10.589" transform="translate(12.36 17.227)"/><line class="g" y1="10.589" x2="7.677" transform="translate(27.767 71.547)"/><line class="g" y1="10.589" x2="7.677" transform="translate(28.032 35.122)"/><g transform="matrix(0.799, -0.602, 0.602, 0.799, 0, 46.67)"><path class="f" d="M0,0C11.93,16.3,0,16.655,0,16.655Z" transform="translate(5.299 0)"/><path class="f" d="M5.3,0c-11.93,16.3,0,16.655,0,16.655Z" transform="translate(0 0)"/></g><g transform="matrix(0.799, -0.602, 0.602, 0.799, 0.159, 10.827)"><path class="f" d="M0,0C11.93,16.3,0,16.655,0,16.655Z" transform="translate(5.299 0)"/><path class="f" d="M5.3,0c-11.93,16.3,0,16.655,0,16.655Z" transform="translate(0 0)"/></g><g transform="matrix(0.799, -0.602, 0.602, 0.799, 0, 83.148)"><path class="f" d="M0,0C11.93,16.3,0,16.655,0,16.655Z" transform="translate(5.299 0)"/><path class="f" d="M5.3,0c-11.93,16.3,0,16.655,0,16.655Z" transform="translate(0 0)"/></g><g transform="matrix(-0.799, -0.602, 0.602, -0.799, 38.856, 109.844)"><path class="f" d="M0,16.655C11.93.354,0,0,0,0Z" transform="translate(5.299 0)"/><path class="f" d="M5.3,16.655C-6.628.354,5.3,0,5.3,0Z" transform="translate(0 0)"/></g><g transform="matrix(-0.799, -0.602, 0.602, -0.799, 38.856, 76.808)"><path class="f" d="M0,16.655C11.93.354,0,0,0,0Z" transform="translate(5.299 0)"/><path class="f" d="M5.3,16.655C-6.628.354,5.3,0,5.3,0Z" transform="translate(0 0)"/></g><g transform="matrix(-0.799, -0.602, 0.602, -0.799, 38.856, 40.435)"><path class="f" d="M0,16.655C11.93.354,0,0,0,0Z" transform="translate(5.299 0)"/><path class="f" d="M5.3,16.655C-6.628.354,5.3,0,5.3,0Z" transform="translate(0 0)"/></g><g transform="matrix(-0.799, -0.602, 0.602, -0.799, 31.338, 19.681)"><path class="f" d="M0,16.655C11.93.354,0,0,0,0Z" transform="translate(5.299 0)"/><path class="f" d="M5.3,16.655C-6.628.354,5.3,0,5.3,0Z" transform="translate(0 0)"/></g></g><g transform="translate(611.665 365.011) rotate(-31)"><path class="g" d="M7.984,0C5.988,6.124,0,3.433,0,14.274s7.984,10.1,7.984,18.871S0,41.311,0,49.356s7.984,6.593,7.984,15.968S0,75.485,0,86.856s5.988,11.916,7.984,17.9S0,120.728,0,120.728" transform="translate(20.024 13.972)"/><line class="g" y1="10.589" x2="7.677" transform="translate(27.132 105.802)"/><line class="g" x1="7.677" y1="10.589" transform="translate(12.36 90.183)"/><line class="g" x1="7.677" y1="10.589" transform="translate(12.36 53.705)"/><line class="g" x1="7.677" y1="10.589" transform="translate(12.36 17.227)"/><line class="g" y1="10.589" x2="7.677" transform="translate(27.767 71.547)"/><line class="g" y1="10.589" x2="7.677" transform="translate(28.032 35.122)"/><g transform="matrix(0.799, -0.602, 0.602, 0.799, 0, 46.67)"><path class="f" d="M0,0C11.93,16.3,0,16.655,0,16.655Z" transform="translate(5.299 0)"/><path class="f" d="M5.3,0c-11.93,16.3,0,16.655,0,16.655Z" transform="translate(0 0)"/></g><g transform="matrix(0.799, -0.602, 0.602, 0.799, 0.159, 10.827)"><path class="f" d="M0,0C11.93,16.3,0,16.655,0,16.655Z" transform="translate(5.299 0)"/><path class="f" d="M5.3,0c-11.93,16.3,0,16.655,0,16.655Z" transform="translate(0 0)"/></g><g transform="matrix(0.799, -0.602, 0.602, 0.799, 0, 83.148)"><path class="f" d="M0,0C11.93,16.3,0,16.655,0,16.655Z" transform="translate(5.299 0)"/><path class="f" d="M5.3,0c-11.93,16.3,0,16.655,0,16.655Z" transform="translate(0 0)"/></g><g transform="matrix(-0.799, -0.602, 0.602, -0.799, 38.856, 109.844)"><path class="f" d="M0,16.655C11.93.354,0,0,0,0Z" transform="translate(5.299 0)"/><path class="f" d="M5.3,16.655C-6.628.354,5.3,0,5.3,0Z" transform="translate(0 0)"/></g><g transform="matrix(-0.799, -0.602, 0.602, -0.799, 38.856, 76.808)"><path class="f" d="M0,16.655C11.93.354,0,0,0,0Z" transform="translate(5.299 0)"/><path class="f" d="M5.3,16.655C-6.628.354,5.3,0,5.3,0Z" transform="translate(0 0)"/></g><g transform="matrix(-0.799, -0.602, 0.602, -0.799, 38.856, 40.435)"><path class="f" d="M0,16.655C11.93.354,0,0,0,0Z" transform="translate(5.299 0)"/><path class="f" d="M5.3,16.655C-6.628.354,5.3,0,5.3,0Z" transform="translate(0 0)"/></g><g transform="matrix(-0.799, -0.602, 0.602, -0.799, 31.338, 19.681)"><path class="f" d="M0,16.655C11.93.354,0,0,0,0Z" transform="translate(5.299 0)"/><path class="f" d="M5.3,16.655C-6.628.354,5.3,0,5.3,0Z" transform="translate(0 0)"/></g></g><g transform="translate(636.187 142.308) rotate(131)"><path class="f" d="M0,23.756C17.017.505,0,0,0,0Z" transform="translate(7.558 0)"/><path class="f" d="M7.563,23.756C-9.454.505,7.563,0,7.563,0Z" transform="translate(0 0)"/></g><g transform="translate(603.187 213.641) rotate(131)"><path class="f" d="M0,23.756C17.017.505,0,0,0,0Z" transform="translate(7.558 0)"/><path class="f" d="M7.563,23.756C-9.454.505,7.563,0,7.563,0Z" transform="translate(0 0)"/></g><g transform="matrix(-0.829, -0.559, 0.559, -0.829, 613.888, 230.272)"><path class="f" d="M0,23.756C17.017.505,0,0,0,0Z" transform="translate(7.558 0)"/><path class="f" d="M7.563,23.756C-9.454.505,7.563,0,7.563,0Z" transform="translate(0 0)"/></g><g transform="translate(691.362 88.988) rotate(-152)"><path class="f" d="M0,23.756C17.017.505,0,0,0,0Z" transform="translate(7.558 0)"/><path class="f" d="M7.563,23.756C-9.454.505,7.563,0,7.563,0Z" transform="translate(0 0)"/></g><g transform="translate(779.095 110.911) rotate(-155)"><path class="f" d="M0,23.756C17.017.505,0,0,0,0Z" transform="translate(7.558 0)"/><path class="f" d="M7.563,23.756C-9.454.505,7.563,0,7.563,0Z" transform="translate(0 0)"/></g><g transform="translate(853.095 156.934) rotate(-155)"><path class="f" d="M0,23.756C17.017.505,0,0,0,0Z" transform="translate(7.558 0)"/><path class="f" d="M7.563,23.756C-9.454.505,7.563,0,7.563,0Z" transform="translate(0 0)"/></g><g transform="matrix(-0.819, 0.574, -0.574, -0.819, 836.269, 167.478)"><path class="f" d="M0,23.756C17.017.505,0,0,0,0Z" transform="translate(7.558 0)"/><path class="f" d="M7.563,23.756C-9.454.505,7.563,0,7.563,0Z" transform="translate(0 0)"/></g><g transform="translate(536.095 315.645) rotate(-155)"><path class="f" d="M0,23.756C17.017.505,0,0,0,0Z" transform="translate(7.558 0)"/><path class="f" d="M7.563,23.756C-9.454.505,7.563,0,7.563,0Z" transform="translate(0 0)"/></g><g transform="translate(835.899 236.021) rotate(31)"><path class="f" d="M0,23.756C17.017.505,0,0,0,0Z" transform="translate(7.558 0)"/><path class="f" d="M7.563,23.756C-9.454.505,7.563,0,7.563,0Z" transform="translate(0 0)"/></g><g transform="matrix(0.469, 0.883, -0.883, 0.469, 681.201, 81.699)"><path class="f" d="M0,23.756C17.017.505,0,0,0,0Z" transform="translate(7.558 0)"/><path class="f" d="M7.563,23.756C-9.454.505,7.563,0,7.563,0Z" transform="translate(0 0)"/></g></g><g transform="translate(26.912 1520.233)"><path class="d" d="M8.521,9.563c5.1,0,8.571,6.853,8.571,13.875s-3.473,8.221-8.571,8.221S-1.088,23.4-1.088,16.381,3.424,9.563,8.521,9.563Z" transform="translate(338.095 -9.563)"/><path class="d" d="M8.522,31.658c5.1,0,8.571-6.853,8.571-13.875S13.619,9.563,8.522,9.563s-9.609,8.256-9.609,15.278S3.424,31.658,8.522,31.658Z" transform="translate(89.095 110.437)"/><path class="d" d="M15.172,9.564c-9.671,0-16.26,14.668-16.26,29.7s6.589,17.6,16.26,17.6S33.4,39.184,33.4,24.156,24.843,9.564,15.172,9.564Z" transform="translate(1.088 12.767)"/><path class="d" d="M14.083,9.564A15.1,15.1,0,0,0-1.088,24.54c0,7.579,6.148,8.874,15.171,8.874S31.091,24.5,31.091,16.923,23.106,9.564,14.083,9.564Z" transform="translate(1443.088 71.767)"/><path class="d" d="M26.5,9.565c14.636,0,24.607,19.675,24.607,39.834S41.136,73,26.5,73-1.088,49.3-1.088,29.138,11.864,9.565,26.5,9.565Z" transform="translate(1273.088 83.767)"/><path class="d" d="M26.5,9.565c14.636,0,24.607,19.675,24.607,39.834S41.136,73,26.5,73-1.088,49.3-1.088,29.138,11.864,9.565,26.5,9.565Z" transform="translate(1545.088 103.767)"/><path class="d" d="M7.877,9.564c-5.332,0-8.965,9.427-8.965,19.086S2.545,39.959,7.877,39.959,17.928,28.6,17.928,18.942,13.209,9.564,7.877,9.564Z" transform="translate(1669.072 25.767)"/><path class="d" d="M8.965,0C3.633,0,0,9.428,0,19.087S3.633,30.4,8.965,30.4,19.016,19.039,19.016,9.38,14.3,0,8.965,0Z" transform="matrix(-0.438, -0.899, 0.899, -0.438, 1020, 74.736)"/><path class="d" d="M4.992,9.563c-3.616,0-6.08,3.774-6.08,7.64s2.464,4.527,6.08,4.527,6.816-4.546,6.816-8.412S8.608,9.563,4.992,9.563Z" transform="translate(878.072 166.996)"/><path class="d" d="M7.877,9.564c-5.332,0-8.965,9.427-8.965,19.086S2.545,39.959,7.877,39.959,17.928,28.6,17.928,18.942,13.209,9.564,7.877,9.564Z" transform="translate(826.072 7.767)"/><path class="d" d="M26.5,9.565c14.636,0,24.607,19.675,24.607,39.834S41.136,73,26.5,73-1.088,49.3-1.088,29.138,11.864,9.565,26.5,9.565Z" transform="translate(1784.088 15.767)"/><path class="d" d="M8.222,9.564c-5.537,0-9.31,7.444-9.31,15.07s3.773,8.929,9.31,8.929S18.659,24.6,18.659,16.969,13.759,9.564,8.222,9.564Z" transform="translate(1784.312 115.485)"/><path class="d" d="M27.645,29.823c14.636,0,15.3-9.117,15.3-16.081s-.663-12.187-15.3-12.187S0-6.417,0,13.742,13.01,29.823,27.645,29.823Z" transform="translate(394.396 109.559) rotate(20)"/><path class="d" d="M27.645.338c14.636,0,15.3,9.117,15.3,16.081S22.724,29.749,22.3,30.153,0,36.578,0,16.419,13.009.338,27.645.338Z" transform="translate(572.749 73.901) rotate(160)"/><path class="d" d="M26.5,9.565c14.636,0,24.607,19.675,24.607,39.834S27.63,63.111,13.7,58.468.935,42.8,2.676,32.934,11.864,9.565,26.5,9.565Z" transform="translate(205.088 57.767)"/><path class="d" d="M8.94,9.565c4.291,0,7.214,5.768,7.214,11.678S9.271,25.263,5.188,23.9s-3.743-4.594-3.233-7.486S4.649,9.565,8.94,9.565Z" transform="translate(571.088 148.767)"/></g></g></svg>