<svg xmlns="http://www.w3.org/2000/svg" xmlns:xlink="http://www.w3.org/1999/xlink" width="1920" height="630" viewBox="0 0 1920 630">
  <defs>
    <linearGradient id="linear-gradient" x1="0.5" x2="0.5" y2="1.1" gradientUnits="objectBoundingBox">
      <stop offset="0" stop-color="#7e4d7d"/>
      <stop offset="1" stop-color="#efb655"/>
    </linearGradient>
    <radialGradient id="radial-gradient" cx="0.5" cy="0.5" r="0.519" gradientTransform="matrix(-0.492, 0.871, -0.822, -0.465, 1.157, 0.297)" gradientUnits="objectBoundingBox">
      <stop offset="0" stop-color="#f9e8b8"/>
      <stop offset="1" stop-color="#ffbc00"/>
    </radialGradient>
    <linearGradient id="linear-gradient-2" x1="1" y1="0.5" x2="0" y2="0.5" gradientUnits="objectBoundingBox">
      <stop offset="0" stop-color="#f9aa8c"/>
      <stop offset="1" stop-color="#fff"/>
    </linearGradient>
  </defs>
  <g id="Drawing-_3" data-name="Drawing-#3" transform="translate(0 -4512)">
    <g id="AboutBG" transform="translate(0 3432)">
      <g id="AboutBg-2" data-name="AboutBg">
        <g id="section-1" transform="translate(0 1080)">
          <rect id="sky" width="1920" height="630" transform="translate(0)" fill="url(#linear-gradient)"/>
          <g id="moon" transform="translate(1475.001 308.409)">
            <circle id="Ellipse_16" data-name="Ellipse 16" cx="84" cy="84" r="84" transform="translate(-3 -11)" fill="url(#radial-gradient)"/>
            <circle id="Ellipse_17" data-name="Ellipse 17" cx="84" cy="84" r="84" transform="translate(-2.999 157) rotate(-90)" opacity="0.67" fill="url(#linear-gradient-2)"/>
          </g>
          <path id="base3" d="M3564.585,431.467c133.736-127.034,621.027,49.339,841.391-16.392s439.521,95.21,588.643,74.972,266.834-110.621,489.21-91.594c.048-.437.4,329.744,0,330.011.079-.165-1919.492-.124-1919.492-.124Z" transform="translate(-3564.02 -98.617)" fill="#464646"/>
          <path id="base2" d="M3590.272,439.407c261.393-171.633,602.358,24.355,825.986-28.955s446.032,77.219,597.363,60.8,270.788-86.847,496.457-71.415c.049-.354.41,264.563,0,264.779.081-.134-1919.806-1.384-1919.806-1.384Z" transform="translate(-3590.271 -34.774)" fill="#3d3d3d"/>
          <path id="base1" d="M3696.309,411.926c275.467-129.359,531.414,33.82,767.083-6.359s470.047,58.2,629.527,45.828,285.368-65.456,523.187-53.825c.052-.267.433,199.4,0,199.562.085-.1-1919.8-.3-1919.8-.3Z" transform="translate(-3696.309 32.716)" fill="#303030"/>
          <path id="tree" d="M4474.518,328.344c4.519,51.043,21.259,105.075,21.259,105.075h47.564s-23.732-76.156-28.066-109.592,46.911-62.293,60.017-66.661,29.639,0,29.639,0,35.278,6.693,41.224,7.065c2.428.152-22.229-7.065-22.229-7.065s24.313-25.514,24.3-25.5c.026.02-26.8,22.161-26.8,22.161s-31.562-.169-29.366-6.832c1.77-5.37,18.724-17.753,18.726-17.743s-38.077,22.231-38.077,22.231-56.52,23.479-62.462,29.247-8.769-26.752-4.979-51.478,58.692-81.779,79.272-97.467,69.889-27.562,69.889-27.562l-52.663,12.3,36.076-49.006s-28.437,41.883-62.547,61.174c-5.59,3.161,0-53.877,0-53.877s-8.4,35.99-6.46,53.877-53.606,55.083-56.286,57.783c-8.475,8.539-28.249.874-7.28-45.431,11.491-25.375,28.117-52.887,38.077-72.821,2.907-5.818,3.3-14.473,4.64-19.353a98.1,98.1,0,0,1,4.483-13,39.173,39.173,0,0,0-6.339,11.546c-2.158,6.029-2.925,14.678-7.158,20.811-5.838,8.458-11.917,24.641-18.39,17.08-3.214-6.709-17.617-27.228-33.055-45.578a218.557,218.557,0,0,0-31.162-30.288L4477.7,38.354l-19.938-2.489s21.1,3.121,34.5,19.066,27.449,37.717,25.848,42.951c-2.856,9.333-24.2,53.938-30.59,41.573s-81.565-64.64-81.565-64.64,74.112,54.11,73.75,82.885,12.833,49.524,4.658,43.362-64.765-11.1-81.46-29.7-27.58-23.07-27.58-23.07,16.132,11.448,22.723,23.07-29.829-5.94-47.174-8.2c-18.414-8.512-21.857-16.565-21.857-16.565s6.259,11.523,13.6,14.961-29.621-1.342-29.621-1.342,7.871,3.38,33.89,7.543,68.294,21.422,68.294,21.422l-32.095,3.77h38.442l34.835,15.193s16.8,7.505,21.342,21.1S4470,277.3,4474.518,328.344Z" transform="translate(-3779 70)" fill="#303030"/>
          <g id="Small_plant" data-name="Small plant" transform="translate(776.639 320.822) rotate(13)">
            <path id="Path_96" data-name="Path 96" d="M7.984,0C5.988,6.124,0,3.433,0,14.274s7.984,10.1,7.984,18.871S0,41.311,0,49.356s7.984,6.593,7.984,15.968S0,75.485,0,86.856s5.988,11.916,7.984,17.9S0,120.728,0,120.728" transform="translate(20.024 13.972)" fill="none" stroke="#303030" stroke-linecap="round" stroke-width="3"/>
            <line id="Line_6" data-name="Line 6" y1="10.589" x2="7.677" transform="translate(27.132 105.802)" fill="none" stroke="#303030" stroke-linecap="round" stroke-width="3"/>
            <line id="Line_9" data-name="Line 9" x1="7.677" y1="10.589" transform="translate(12.36 90.183)" fill="none" stroke="#303030" stroke-linecap="round" stroke-width="3"/>
            <line id="Line_10" data-name="Line 10" x1="7.677" y1="10.589" transform="translate(12.36 53.705)" fill="none" stroke="#303030" stroke-linecap="round" stroke-width="3"/>
            <line id="Line_11" data-name="Line 11" x1="7.677" y1="10.589" transform="translate(12.36 17.227)" fill="none" stroke="#303030" stroke-linecap="round" stroke-width="3"/>
            <line id="Line_7" data-name="Line 7" y1="10.589" x2="7.677" transform="translate(27.767 71.547)" fill="none" stroke="#303030" stroke-linecap="round" stroke-width="3"/>
            <line id="Line_8" data-name="Line 8" y1="10.589" x2="7.677" transform="translate(28.032 35.122)" fill="none" stroke="#303030" stroke-linecap="round" stroke-width="3"/>
            <g id="Group_7" data-name="Group 7" transform="matrix(0.799, -0.602, 0.602, 0.799, 0, 46.67)">
              <path id="Path_99" data-name="Path 99" d="M0,0C11.93,16.3,0,16.655,0,16.655Z" transform="translate(5.299 0)" fill="#303030"/>
              <path id="Path_100" data-name="Path 100" d="M5.3,0c-11.93,16.3,0,16.655,0,16.655Z" transform="translate(0 0)" fill="#303030"/>
            </g>
            <g id="Group_8" data-name="Group 8" transform="matrix(0.799, -0.602, 0.602, 0.799, 0.159, 10.827)">
              <path id="Path_99-2" data-name="Path 99" d="M0,0C11.93,16.3,0,16.655,0,16.655Z" transform="translate(5.299 0)" fill="#303030"/>
              <path id="Path_100-2" data-name="Path 100" d="M5.3,0c-11.93,16.3,0,16.655,0,16.655Z" transform="translate(0 0)" fill="#303030"/>
            </g>
            <g id="Group_9" data-name="Group 9" transform="matrix(0.799, -0.602, 0.602, 0.799, 0, 83.148)">
              <path id="Path_99-3" data-name="Path 99" d="M0,0C11.93,16.3,0,16.655,0,16.655Z" transform="translate(5.299 0)" fill="#303030"/>
              <path id="Path_100-3" data-name="Path 100" d="M5.3,0c-11.93,16.3,0,16.655,0,16.655Z" transform="translate(0 0)" fill="#303030"/>
            </g>
            <g id="Group_10" data-name="Group 10" transform="matrix(-0.799, -0.602, 0.602, -0.799, 38.856, 109.844)">
              <path id="Path_99-4" data-name="Path 99" d="M0,16.655C11.93.354,0,0,0,0Z" transform="translate(5.299 0)" fill="#303030"/>
              <path id="Path_100-4" data-name="Path 100" d="M5.3,16.655C-6.628.354,5.3,0,5.3,0Z" transform="translate(0 0)" fill="#303030"/>
            </g>
            <g id="Group_11" data-name="Group 11" transform="matrix(-0.799, -0.602, 0.602, -0.799, 38.856, 76.808)">
              <path id="Path_99-5" data-name="Path 99" d="M0,16.655C11.93.354,0,0,0,0Z" transform="translate(5.299 0)" fill="#303030"/>
              <path id="Path_100-5" data-name="Path 100" d="M5.3,16.655C-6.628.354,5.3,0,5.3,0Z" transform="translate(0 0)" fill="#303030"/>
            </g>
            <g id="Group_12" data-name="Group 12" transform="matrix(-0.799, -0.602, 0.602, -0.799, 38.856, 40.435)">
              <path id="Path_99-6" data-name="Path 99" d="M0,16.655C11.93.354,0,0,0,0Z" transform="translate(5.299 0)" fill="#303030"/>
              <path id="Path_100-6" data-name="Path 100" d="M5.3,16.655C-6.628.354,5.3,0,5.3,0Z" transform="translate(0 0)" fill="#303030"/>
            </g>
            <g id="Group_14" data-name="Group 14" transform="matrix(-0.799, -0.602, 0.602, -0.799, 31.338, 19.681)">
              <path id="Path_99-7" data-name="Path 99" d="M0,16.655C11.93.354,0,0,0,0Z" transform="translate(5.299 0)" fill="#303030"/>
              <path id="Path_100-7" data-name="Path 100" d="M5.3,16.655C-6.628.354,5.3,0,5.3,0Z" transform="translate(0 0)" fill="#303030"/>
            </g>
          </g>
          <g id="Small_plant-2" data-name="Small plant" transform="translate(611.665 356.877) rotate(-31)">
            <path id="Path_96-2" data-name="Path 96" d="M7.984,0C5.988,6.124,0,3.433,0,14.274s7.984,10.1,7.984,18.871S0,41.311,0,49.356s7.984,6.593,7.984,15.968S0,75.485,0,86.856s5.988,11.916,7.984,17.9S0,120.728,0,120.728" transform="translate(20.024 13.972)" fill="none" stroke="#303030" stroke-linecap="round" stroke-width="3"/>
            <line id="Line_6-2" data-name="Line 6" y1="10.589" x2="7.677" transform="translate(27.132 105.802)" fill="none" stroke="#303030" stroke-linecap="round" stroke-width="3"/>
            <line id="Line_9-2" data-name="Line 9" x1="7.677" y1="10.589" transform="translate(12.36 90.183)" fill="none" stroke="#303030" stroke-linecap="round" stroke-width="3"/>
            <line id="Line_10-2" data-name="Line 10" x1="7.677" y1="10.589" transform="translate(12.36 53.705)" fill="none" stroke="#303030" stroke-linecap="round" stroke-width="3"/>
            <line id="Line_11-2" data-name="Line 11" x1="7.677" y1="10.589" transform="translate(12.36 17.227)" fill="none" stroke="#303030" stroke-linecap="round" stroke-width="3"/>
            <line id="Line_7-2" data-name="Line 7" y1="10.589" x2="7.677" transform="translate(27.767 71.547)" fill="none" stroke="#303030" stroke-linecap="round" stroke-width="3"/>
            <line id="Line_8-2" data-name="Line 8" y1="10.589" x2="7.677" transform="translate(28.032 35.122)" fill="none" stroke="#303030" stroke-linecap="round" stroke-width="3"/>
            <g id="Group_7-2" data-name="Group 7" transform="matrix(0.799, -0.602, 0.602, 0.799, 0, 46.67)">
              <path id="Path_99-8" data-name="Path 99" d="M0,0C11.93,16.3,0,16.655,0,16.655Z" transform="translate(5.299 0)" fill="#303030"/>
              <path id="Path_100-8" data-name="Path 100" d="M5.3,0c-11.93,16.3,0,16.655,0,16.655Z" transform="translate(0 0)" fill="#303030"/>
            </g>
            <g id="Group_8-2" data-name="Group 8" transform="matrix(0.799, -0.602, 0.602, 0.799, 0.159, 10.827)">
              <path id="Path_99-9" data-name="Path 99" d="M0,0C11.93,16.3,0,16.655,0,16.655Z" transform="translate(5.299 0)" fill="#303030"/>
              <path id="Path_100-9" data-name="Path 100" d="M5.3,0c-11.93,16.3,0,16.655,0,16.655Z" transform="translate(0 0)" fill="#303030"/>
            </g>
            <g id="Group_9-2" data-name="Group 9" transform="matrix(0.799, -0.602, 0.602, 0.799, 0, 83.148)">
              <path id="Path_99-10" data-name="Path 99" d="M0,0C11.93,16.3,0,16.655,0,16.655Z" transform="translate(5.299 0)" fill="#303030"/>
              <path id="Path_100-10" data-name="Path 100" d="M5.3,0c-11.93,16.3,0,16.655,0,16.655Z" transform="translate(0 0)" fill="#303030"/>
            </g>
            <g id="Group_10-2" data-name="Group 10" transform="matrix(-0.799, -0.602, 0.602, -0.799, 38.856, 109.844)">
              <path id="Path_99-11" data-name="Path 99" d="M0,16.655C11.93.354,0,0,0,0Z" transform="translate(5.299 0)" fill="#303030"/>
              <path id="Path_100-11" data-name="Path 100" d="M5.3,16.655C-6.628.354,5.3,0,5.3,0Z" transform="translate(0 0)" fill="#303030"/>
            </g>
            <g id="Group_11-2" data-name="Group 11" transform="matrix(-0.799, -0.602, 0.602, -0.799, 38.856, 76.808)">
              <path id="Path_99-12" data-name="Path 99" d="M0,16.655C11.93.354,0,0,0,0Z" transform="translate(5.299 0)" fill="#303030"/>
              <path id="Path_100-12" data-name="Path 100" d="M5.3,16.655C-6.628.354,5.3,0,5.3,0Z" transform="translate(0 0)" fill="#303030"/>
            </g>
            <g id="Group_12-2" data-name="Group 12" transform="matrix(-0.799, -0.602, 0.602, -0.799, 38.856, 40.435)">
              <path id="Path_99-13" data-name="Path 99" d="M0,16.655C11.93.354,0,0,0,0Z" transform="translate(5.299 0)" fill="#303030"/>
              <path id="Path_100-13" data-name="Path 100" d="M5.3,16.655C-6.628.354,5.3,0,5.3,0Z" transform="translate(0 0)" fill="#303030"/>
            </g>
            <g id="Group_14-2" data-name="Group 14" transform="matrix(-0.799, -0.602, 0.602, -0.799, 31.338, 19.681)">
              <path id="Path_99-14" data-name="Path 99" d="M0,16.655C11.93.354,0,0,0,0Z" transform="translate(5.299 0)" fill="#303030"/>
              <path id="Path_100-14" data-name="Path 100" d="M5.3,16.655C-6.628.354,5.3,0,5.3,0Z" transform="translate(0 0)" fill="#303030"/>
            </g>
          </g>
          <g id="Group_16" data-name="Group 16" transform="translate(636.187 139.836) rotate(131)">
            <path id="Path_99-15" data-name="Path 99" d="M0,23.756C17.017.505,0,0,0,0Z" transform="translate(7.558 0)" fill="#303030"/>
            <path id="Path_100-15" data-name="Path 100" d="M7.563,23.756C-9.454.505,7.563,0,7.563,0Z" transform="translate(0 0)" fill="#303030"/>
          </g>
          <g id="Group_17" data-name="Group 17" transform="translate(603.187 209.777) rotate(131)">
            <path id="Path_99-16" data-name="Path 99" d="M0,23.756C17.017.505,0,0,0,0Z" transform="translate(7.558 0)" fill="#303030"/>
            <path id="Path_100-16" data-name="Path 100" d="M7.563,23.756C-9.454.505,7.563,0,7.563,0Z" transform="translate(0 0)" fill="#303030"/>
          </g>
          <g id="Group_19" data-name="Group 19" transform="matrix(-0.883, -0.469, 0.469, -0.883, 691.362, 88.988)">
            <path id="Path_99-17" data-name="Path 99" d="M0,23.756C17.017.505,0,0,0,0Z" transform="translate(7.558 0)" fill="#303030"/>
            <path id="Path_100-17" data-name="Path 100" d="M7.563,23.756C-9.454.505,7.563,0,7.563,0Z" transform="translate(0 0)" fill="#303030"/>
          </g>
          <g id="Group_21" data-name="Group 21" transform="translate(779.095 110.911) rotate(-155)">
            <path id="Path_99-18" data-name="Path 99" d="M0,23.756C17.017.505,0,0,0,0Z" transform="translate(7.558 0)" fill="#303030"/>
            <path id="Path_100-18" data-name="Path 100" d="M7.563,23.756C-9.454.505,7.563,0,7.563,0Z" transform="translate(0 0)" fill="#303030"/>
          </g>
          <g id="Group_24" data-name="Group 24" transform="translate(827.134 177.022) rotate(155)">
            <path id="Path_99-19" data-name="Path 99" d="M0,23.756C17.017.505,0,0,0,0Z" transform="translate(7.558 0)" fill="#303030"/>
            <path id="Path_100-19" data-name="Path 100" d="M7.563,23.756C-9.454.505,7.563,0,7.563,0Z" transform="translate(0 0)" fill="#303030"/>
          </g>
          <g id="Group_22" data-name="Group 22" transform="translate(585.095 335.022) rotate(-155)">
            <path id="Path_99-20" data-name="Path 99" d="M0,23.756C17.017.505,0,0,0,0Z" transform="translate(7.558 0)" fill="#303030"/>
            <path id="Path_100-20" data-name="Path 100" d="M7.563,23.756C-9.454.505,7.563,0,7.563,0Z" transform="translate(0 0)" fill="#303030"/>
          </g>
          <g id="Group_23" data-name="Group 23" transform="translate(835.899 231.408) rotate(31)">
            <path id="Path_99-21" data-name="Path 99" d="M0,23.756C17.017.505,0,0,0,0Z" transform="translate(7.558 0)" fill="#303030"/>
            <path id="Path_100-21" data-name="Path 100" d="M7.563,23.756C-9.454.505,7.563,0,7.563,0Z" transform="translate(0 0)" fill="#303030"/>
          </g>
          <g id="Group_20" data-name="Group 20" transform="matrix(0.469, 0.883, -0.883, 0.469, 681.201, 81.699)">
            <path id="Path_99-22" data-name="Path 99" d="M0,23.756C17.017.505,0,0,0,0Z" transform="translate(7.558 0)" fill="#303030"/>
            <path id="Path_100-22" data-name="Path 100" d="M7.563,23.756C-9.454.505,7.563,0,7.563,0Z" transform="translate(0 0)" fill="#303030"/>
          </g>
        </g>
        <g id="rocks" transform="translate(26.912 1508.233)">
          <path id="Path_126" data-name="Path 126" d="M8.521,9.563c5.1,0,8.571,6.853,8.571,13.875s-3.473,8.221-8.571,8.221S-1.088,23.4-1.088,16.381,3.424,9.563,8.521,9.563Z" transform="translate(338.095 -9.563)" fill="#464646"/>
          <path id="Path_134" data-name="Path 134" d="M8.522,31.658c5.1,0,8.571-6.853,8.571-13.875S13.619,9.563,8.522,9.563s-9.609,8.256-9.609,15.278S3.424,31.658,8.522,31.658Z" transform="translate(89.095 110.437)" fill="#464646"/>
          <path id="Path_127" data-name="Path 127" d="M15.172,9.564c-9.671,0-16.26,14.668-16.26,29.7s6.589,17.6,16.26,17.6S33.4,39.184,33.4,24.156,24.843,9.564,15.172,9.564Z" transform="translate(1.088 12.767)" fill="#464646"/>
          <path id="Path_128" data-name="Path 128" d="M14.083,9.564A15.1,15.1,0,0,0-1.088,24.54c0,7.579,6.148,8.874,15.171,8.874S31.091,24.5,31.091,16.923,23.106,9.564,14.083,9.564Z" transform="translate(1443.088 71.767)" fill="#464646"/>
          <path id="Path_129" data-name="Path 129" d="M26.5,9.565c14.636,0,24.607,19.675,24.607,39.834S41.136,73,26.5,73-1.088,49.3-1.088,29.138,11.864,9.565,26.5,9.565Z" transform="translate(1273.088 83.767)" fill="#464646"/>
          <path id="Path_130" data-name="Path 130" d="M26.5,9.565c14.636,0,24.607,19.675,24.607,39.834S41.136,73,26.5,73-1.088,49.3-1.088,29.138,11.864,9.565,26.5,9.565Z" transform="translate(1545.088 103.767)" fill="#464646"/>
          <path id="Path_137" data-name="Path 137" d="M7.877,9.564c-5.332,0-8.965,9.427-8.965,19.086S2.545,39.959,7.877,39.959,17.928,28.6,17.928,18.942,13.209,9.564,7.877,9.564Z" transform="translate(1669.072 25.767)" fill="#464646"/>
          <path id="Path_139" data-name="Path 139" d="M8.965,0C3.633,0,0,9.428,0,19.087S3.633,30.4,8.965,30.4,19.016,19.039,19.016,9.38,14.3,0,8.965,0Z" transform="matrix(-0.438, -0.899, 0.899, -0.438, 1020, 74.736)" fill="#464646"/>
          <path id="Path_141" data-name="Path 141" d="M4.992,9.563c-3.616,0-6.08,3.774-6.08,7.64s2.464,4.527,6.08,4.527,6.816-4.546,6.816-8.412S8.608,9.563,4.992,9.563Z" transform="translate(878.072 166.996)" fill="#464646"/>
          <path id="Path_140" data-name="Path 140" d="M7.877,9.564c-5.332,0-8.965,9.427-8.965,19.086S2.545,39.959,7.877,39.959,17.928,28.6,17.928,18.942,13.209,9.564,7.877,9.564Z" transform="translate(826.072 7.767)" fill="#464646"/>
          <path id="Path_131" data-name="Path 131" d="M26.5,9.565c14.636,0,24.607,19.675,24.607,39.834S41.136,73,26.5,73-1.088,49.3-1.088,29.138,11.864,9.565,26.5,9.565Z" transform="translate(1784.088 15.767)" fill="#464646"/>
          <path id="Path_138" data-name="Path 138" d="M8.222,9.564c-5.537,0-9.31,7.444-9.31,15.07s3.773,8.929,9.31,8.929S18.659,24.6,18.659,16.969,13.759,9.564,8.222,9.564Z" transform="translate(1784.312 115.485)" fill="#464646"/>
          <path id="Path_132" data-name="Path 132" d="M27.645,29.823c14.636,0,15.3-9.117,15.3-16.081s-.663-12.187-15.3-12.187S0-6.417,0,13.742,13.01,29.823,27.645,29.823Z" transform="translate(394.396 109.559) rotate(20)" fill="#464646"/>
          <path id="Path_135" data-name="Path 135" d="M27.645.338c14.636,0,15.3,9.117,15.3,16.081S22.724,29.749,22.3,30.153,0,36.578,0,16.419,13.009.338,27.645.338Z" transform="translate(572.749 73.901) rotate(160)" fill="#464646"/>
          <path id="Path_133" data-name="Path 133" d="M26.5,9.565c14.636,0,24.607,19.675,24.607,39.834S27.63,63.111,13.7,58.468.935,42.8,2.676,32.934,11.864,9.565,26.5,9.565Z" transform="translate(205.088 57.767)" fill="#464646"/>
          <path id="Path_136" data-name="Path 136" d="M8.94,9.565c4.291,0,7.214,5.768,7.214,11.678S9.271,25.263,5.188,23.9s-3.743-4.594-3.233-7.486S4.649,9.565,8.94,9.565Z" transform="translate(571.088 148.767)" fill="#464646"/>
        </g>
      </g>
      <g id="bench" transform="translate(706 40)">
        <path id="Path_116" data-name="Path 116" d="M-.487-.5l225.116.051" transform="translate(141.073 1430.598)" fill="#303030"/>
        <line id="Line_18" data-name="Line 18" y1="77.626" x2="1.553" transform="translate(365.691 1352.472)" fill="none"/>
        <line id="Line_19" data-name="Line 19" y1="77.626" x2="0.776" transform="translate(140.576 1352.472)" fill="none"/>
        <rect id="Rectangle_30" data-name="Rectangle 30" width="225.116" height="15.525" transform="translate(140.576 1395.167)" fill="#303030"/>
        <rect id="Rectangle_31" data-name="Rectangle 31" width="225.116" height="15.525" transform="translate(140.576 1375.76)" fill="#303030"/>
        <rect id="Rectangle_32" data-name="Rectangle 32" width="225.116" height="15.525" transform="translate(140.576 1414.573)" fill="#303030"/>
        <path id="Path_117" data-name="Path 117" d="M6.47,0H232.226l9.651,8.927s22.513,8.927,17.182,8.927H-18.924c-5.33,0,15.743-8.927,15.743-8.927Z" transform="translate(133.552 1433.979)" fill="#303030"/>
        <rect id="Rectangle_36" data-name="Rectangle 36" width="10.868" height="32.694" transform="translate(140.576 1451.833)" fill="#303030"/>
        <rect id="Rectangle_37" data-name="Rectangle 37" width="10.868" height="42.694" transform="translate(355.6 1451.833)" fill="#303030"/>
      </g>
    </g>
    <path id="doggo" d="M8301.949,1886.252c-2.7,1.429-7.567,4.483-11.294,4.483-.786,0-3.532-2.648-6.571-2.648s-12.757.349-15.562,6.035-1.055,4.628-2.8,7.5-1.436.992-6.885,4.9-6.634,9.955-9.435,11.005-21.8,4.356-25.754,6.385-1.807,3.657-5.481,4.707-10.424-10.129-7.874-16.631,5.729-9.866,3.629-10.886-7.465.957-10.983,5.419-3.082,14.389-1.962,19.393,5.551,3,6.564,5c1.267,2.5-.219,4.16,0,8.806s1.4,2.953.873,9.778-3.876,7.733-4.691,10.425,3.693,15.176,5.2,18.4,11.573,13.4,11.573,13.4,6.06,3.325,8.684,0-11.226-15.536-11.015-16c1.013-2.243.956-6.71,4.653-5.817s3.109,1.275,6.3,1.461,4,4.737,6.452,8.1,3.875,5.033,8.415,5.355,7.267-1.161,7.267-2.932-6.2-4.972-8.71-4.972-.7-5.594,0-5.551c11.6.721,23.1-5.619,25.2-4.228s3.02,5.091,5.95,8.584,6.12,4.073,9.1,5.388a10.986,10.986,0,0,1,5.107,5.462s4.69,1.952,6.594.889c.9-.488.614-4.589,0-6.351-.78-2.237-10.6-5.556-11.7-9.744s-1.983-4.213,0-7.194,1.2-2.9,5.107-4.55,4.991.8,6.594.945,4.051-.265,7.3,1.481,6.1.926,6.5,3.174c.232,1.3-.423,6.51,0,7.572,1.164,2.919,3.63,1.589,4.809,1.353s2.914-3.38,2.584-7.009-1.5-3.51-2.584-7.516-15.22-7.018-17.322-7.7.108-6.349,0-10.671-2.295-10.329-2.295-10.329a15.289,15.289,0,0,0,2.295-7,40.143,40.143,0,0,0-1.293-11.226c-.941-3.2,5.4-4.591,8.426-6.164s2.467-4.321,1.421-4.9c-.319-.21-1.731.9-3.088.9-3.374,0-6.759,2.735-6.759,1.11,0-.682,1.885-3.261,4.6-4.854,3.236-1.9,5.173-1.176,6.333-4.655a6.194,6.194,0,0,0-1.088-6.035S8304.652,1884.823,8301.949,1886.252Z" transform="matrix(0.999, 0.035, -0.035, 0.999, -7672.884, 2667.368)" fill="#303030"/>
    <path id="Man" d="M8408.857,1814.791c-1.667.261-5.043.411-11.234,1.454-6.384,1.075-14.032.7-15.466,2.481s2.188,7.37,0,11.538,0,11.792,0,11.792-3.094,9.221,0,11.123,4.25,2.479,5.437,2.507-.45,9.387-3.1,9.234-16.454,7.859-18.361,9.023-8.535,26.5-8.535,26.5l3.314,3.828s-7.062,26.528-7.051,28.343,8.994,38.637,8.994,38.637-3.52,18.581-2.932,22.617,2.932,32.1,2.932,32.1l-28.966,44.665s22.393,10.651,26.034,10.651-10.413-13.045-10.413-13.045,22.949-25.613,29.951-31.806,7.063-42.563,7.063-42.563,12.556,23,14.063,28.815,10.7,45.554,10.7,45.554v13.045s26.862-2.767,29.782-4.971-19.6-8.074-19.6-8.074-2.213-26.995-6.492-51.241-6.117-45.745-6.117-45.745-2.274-34.941,0-35.343,27.743,22.131,27.743,22.131,3.453,12.475,6.464,13.212,5.562-6.432,5.171-8.9-7.166-8.158-7.166-8.158-28.521-29.571-29.782-31.552,2.55-11.06,2.55-22.194-.778-19.6-2.55-22.345-12.744-10.35-12.744-10.35l2.686-9.2s8.135.51,10.059,0,2.55-11.117,2.55-11.117,3.617-.693,3.957-1.336-3.957-9.3-3.957-9.3-.729-6.53,0-6.53l11.282-3,4.956-1.588s-1.133-1.155-4.956-1.155h-11.282S8412.412,1814.235,8408.857,1814.791Z" transform="matrix(0.999, 0.035, -0.035, 0.999, -7928.919, 2551.125)" fill="#303030"/>
    <g id="string" transform="matrix(0.999, 0.035, -0.035, 0.999, 232.495, -0.6)">
      <path id="Subtraction_55" data-name="Subtraction 55" d="M7.42,0C5.456,0,3.55,1.914,2.052,5.389A25.712,25.712,0,0,0,0,14.714c0,5.238,3.589,9.5,8,9.5,4.43,0,8.172-4.431,8.172-9.676A21.2,21.2,0,0,0,13.453,5.3C11.6,1.932,9.4,0,7.42,0Zm.5,22.5c-4.062,0-6.687-3.256-6.687-8.294A22.177,22.177,0,0,1,2.89,5.973c1.2-2.771,2.813-4.3,4.554-4.3,1.759,0,3.641,1.631,5.161,4.476a19.1,19.1,0,0,1,2.261,8.411C14.866,19.383,12.141,22.5,7.922,22.5Z" transform="translate(392.778 4817.326) rotate(158)" fill="#303030"/>
      <path id="Path_231" data-name="Path 231" d="M-8.116,36.437s19.567,2.4,30.844-4.415S33.4,22.679,45.11,16.364,64.332,6.433,64.332,6.433l.495,1.582s-6.615,3.008-18.341,9.356S35.068,26.41,23.712,33.195-9.767,37.823-9.767,37.823Z" transform="translate(415.88 4797.779) rotate(40)" fill="#303030"/>
    </g>
  </g>
</svg>
