<svg xmlns="http://www.w3.org/2000/svg" width="500" height="500" viewBox="0 0 500 500">
  <path id="DMRC-logo" d="M224.438,498.709a250.5,250.5,0,0,1-24.822-3.788c-8.054-1.648-16.115-3.721-23.959-6.16-7.756-2.412-15.484-5.241-22.969-8.407-7.416-3.137-14.769-6.679-21.853-10.527C123.8,466,116.866,461.792,110.223,457.3A251.376,251.376,0,0,1,42.7,389.777c-4.488-6.643-8.7-13.578-12.522-20.613-3.849-7.085-7.391-14.438-10.527-21.854-3.166-7.485-5.995-15.213-8.407-22.969-2.44-7.844-4.512-15.9-6.16-23.959a250.6,250.6,0,0,1-3.789-24.822,253.791,253.791,0,0,1,0-51.123,250.6,250.6,0,0,1,3.789-24.822c1.648-8.054,3.72-16.115,6.16-23.959,2.412-7.756,5.24-15.484,8.407-22.969,3.137-7.416,6.679-14.769,10.527-21.854,3.821-7.034,8.034-13.969,12.522-20.613A251.376,251.376,0,0,1,110.223,42.7c6.643-4.488,13.578-8.7,20.612-12.523,7.085-3.848,14.437-7.391,21.853-10.527,7.485-3.166,15.213-5.994,22.969-8.407,7.844-2.439,15.9-4.512,23.959-6.16a250.47,250.47,0,0,1,24.822-3.789,253.775,253.775,0,0,1,51.123,0A250.471,250.471,0,0,1,300.383,5.08c8.054,1.648,16.115,3.721,23.959,6.16,7.756,2.413,15.483,5.241,22.969,8.407,7.416,3.136,14.769,6.679,21.853,10.527,7.034,3.821,13.97,8.034,20.613,12.523A251.376,251.376,0,0,1,457.3,110.222c4.488,6.644,8.7,13.578,12.522,20.613,3.849,7.085,7.391,14.437,10.527,21.854,3.166,7.485,5.995,15.214,8.407,22.969,2.44,7.844,4.512,15.9,6.161,23.959a250.634,250.634,0,0,1,3.788,24.822,253.791,253.791,0,0,1,0,51.123,250.635,250.635,0,0,1-3.788,24.822c-1.648,8.055-3.721,16.115-6.161,23.959-2.412,7.756-5.24,15.484-8.407,22.969-3.137,7.417-6.679,14.769-10.527,21.854-3.822,7.034-8.035,13.97-12.522,20.613A251.376,251.376,0,0,1,389.777,457.3c-6.643,4.488-13.578,8.7-20.613,12.523-7.085,3.848-14.437,7.391-21.853,10.527-7.485,3.166-15.213,5.995-22.969,8.407-7.844,2.44-15.9,4.513-23.959,6.16a250.5,250.5,0,0,1-24.822,3.788,253.6,253.6,0,0,1-51.123,0ZM250,457.6c88.7,0,164.592-55.922,194.262-134.361H55.738C85.408,401.677,161.3,457.6,250,457.6ZM455.06,282.489a209.207,209.207,0,0,0,.416-62.225H333.258l-88.867,62.225Zm-281.712,0,88.866-62.225H44.524a209.209,209.209,0,0,0,.416,62.225ZM445.281,179.516C416.36,99.635,339.737,42.4,250,42.4S83.64,99.635,54.719,179.516Z" fill="#f62929"/>
</svg>
