<svg xmlns="http://www.w3.org/2000/svg" width="392.927" height="311.076" viewBox="0 0 392.927 311.076">
  <g id="github" transform="translate(0 -2.499)">
    <path id="Path_256" data-name="Path 256" d="M201.211,313.566c61.067,0,146.365,1.473,177.39-60.593,11.706-23.723,14.325-51.113,14.325-76.948h-.016c0-33.939-9.414-66.257-31.925-92.518a123.739,123.739,0,0,0,6.3-39.047c0-17.42-3.929-26.162-11.952-41.961-36.673,0-60.413,6.876-88.245,28.52a285.858,285.858,0,0,0-65.815-7.449,316.982,316.982,0,0,0-72.61,8.1C100.425,9.8,76.686,2.515,39.6,2.515c-7.924,15.8-11.935,24.542-11.935,41.961A125.592,125.592,0,0,0,33.972,84C11.379,110.014,0,142.086,0,176.025,0,201.86,4.6,229.5,16.536,252.99c32.253,62.786,122.626,60.576,184.675,60.576ZM114.62,150.01c15.553,0,30.534,2.75,45.841,4.862,55.959,8.513,85.38-4.862,119.679-4.862,38.294,0,60.167,31.352,60.167,66.912,0,71.2-65.733,82.056-123.281,82.056H177.57c-57.3,0-123.117-10.92-123.117-82.056,0-35.56,21.84-66.912,60.167-66.912Z" fill="#0c5800"/>
    <path id="Path_257" data-name="Path 257" d="M44.862,102.162c21.12,0,30.043-27.7,30.043-44.646S65.982,12.869,44.863,12.869,14.82,40.57,14.82,57.515s8.923,44.646,30.043,44.646Z" transform="translate(227.812 159.407)" fill="#0c5800"/>
    <path id="Path_258" data-name="Path 258" d="M35.678,102.146c21.12,0,30.043-27.7,30.043-44.646S56.781,12.87,35.678,12.87,5.635,40.571,5.635,57.516s8.923,44.63,30.043,44.63Z" transform="translate(86.621 159.422)" fill="#0c5800"/>
  </g>
</svg>
