<svg xmlns="http://www.w3.org/2000/svg" width="144.162" height="192.459" viewBox="0 0 144.162 192.459">
  <g id="Group_41" data-name="Group 41" transform="translate(-1644.127 -160.413)">
    <g id="ME" transform="translate(1644.127 160.413)">
      <g id="Me-2" data-name="Me" transform="translate(0 0)">
        <path id="Body" d="M40.98,0h3.659A46.249,46.249,0,0,1,90.888,46.249v0a0,0,0,0,1,0,0H0a0,0,0,0,1,0,0V40.98A40.98,40.98,0,0,1,40.98,0Z" transform="translate(40.834 146.211)" fill="#d87e4b"/>
        <path id="Neck" d="M0,0H32.052a0,0,0,0,1,0,0V11.562A14.489,14.489,0,0,1,17.563,26.052h0A17.563,17.563,0,0,1,0,8.489V0A0,0,0,0,1,0,0Z" transform="translate(65.861 136.258)" fill="#e7b598"/>
        <path id="Face" d="M12.638,0h90.4a0,0,0,0,1,0,0V39.012a51,51,0,0,1-51,51h0A52.038,52.038,0,0,1,0,37.972V12.638A12.638,12.638,0,0,1,12.638,0Z" transform="translate(19.026 53.567)" fill="#f3d1b0"/>
        <g id="Hair">
          <path id="Rectangle_12" data-name="Rectangle 12" d="M0,0H93.083A25.32,25.32,0,0,1,118.4,25.32v5.415a0,0,0,0,1,0,0H30.735A30.735,30.735,0,0,1,0,0V0A0,0,0,0,1,0,0Z" transform="translate(3.659)" fill="#59534b"/>
          <path id="Rectangle_13" data-name="Rectangle 13" d="M0,0H120.991a10.73,10.73,0,0,1,10.73,10.73V30.735a0,0,0,0,1,0,0H30.735A30.735,30.735,0,0,1,0,0V0A0,0,0,0,1,0,0Z" transform="translate(0 24.881)" fill="#6b6359"/>
          <path id="Rectangle_18" data-name="Rectangle 18" d="M0,0H0A11.123,11.123,0,0,1,11.123,11.123V37.76a0,0,0,0,1,0,0H0a0,0,0,0,1,0,0V0A0,0,0,0,1,0,0Z" transform="translate(122.062 24.881)" fill="#6b6359"/>
        </g>
        <path id="Ear" d="M0,0H6.22A15.88,15.88,0,0,1,22.1,15.88v0A15.88,15.88,0,0,1,6.22,31.759H0a0,0,0,0,1,0,0V0A0,0,0,0,1,0,0Z" transform="translate(122.062 62.641)" fill="#e7b598"/>
        <path id="Smile" d="M3195.45,2126.7h46.7s3.582,22.642-21.766,22.953S3195.45,2126.7,3195.45,2126.7Z" transform="translate(-3152.062 -2017.266)" fill="#fff"/>
      </g>
      <g id="Glasses2" transform="translate(23.937 65.399)">
        <g id="Subtraction_45" data-name="Subtraction 45" transform="translate(0 0)" fill="#fff">
          <path d="M 19.53715705871582 33.93134307861328 C 15.90283679962158 33.93134307861328 12.69288730621338 32.96321487426758 9.996466636657715 31.05385398864746 C 7.687497138977051 29.41895294189453 5.73324728012085 27.08546257019043 4.187976837158203 24.11820411682129 C 1.468837022781372 18.89498329162598 0.4999970495700836 12.60879325866699 0.4999970495700836 8.467533111572266 C 0.4999970495700836 6.820473670959473 0.9552770853042603 5.487853527069092 1.89186704158783 4.393533229827881 C 2.833317041397095 3.293533563613892 4.301307201385498 2.424723386764526 6.255076885223389 1.811243414878845 C 9.924656867980957 0.6588534712791443 14.80733680725098 0.500003457069397 19.53715705871582 0.500003457069397 C 24.26697731018066 0.500003457069397 29.14965629577637 0.6588534712791443 32.8192253112793 1.811233401298523 C 34.77286529541016 2.424743413925171 36.24081802368164 3.293553352355957 37.18229675292969 4.393543243408203 C 38.11898803710938 5.487923622131348 38.57431793212891 6.820533275604248 38.57431793212891 8.467533111572266 C 38.57431793212891 12.60887336730957 37.60547637939453 18.89510345458984 34.88630676269531 24.11827278137207 C 33.34165573120117 27.0847339630127 31.38726615905762 29.4182243347168 29.07743644714355 31.05386352539063 C 26.38101768493652 32.96321487426758 23.17119789123535 33.93134307861328 19.53715705871582 33.93134307861328 Z M 19.53715705871582 1.282543420791626 C 15.27075672149658 1.282543420791626 10.85421752929688 1.42681348323822 7.455296993255615 2.473443508148193 C 3.518867015838623 3.68557333946228 1.522927045822144 6.006933212280273 1.522927045822144 9.373013496398926 C 1.522927045822144 13.19794368743896 2.419806957244873 19.00742340087891 4.936996936798096 23.84142303466797 C 8.152486801147461 30.01741409301758 13.064697265625 33.1489143371582 19.53715705871582 33.1489143371582 C 26.0096263885498 33.1489143371582 30.92183685302734 30.01741409301758 34.13733673095703 23.84139251708984 C 36.65451812744141 19.00687408447266 37.55139541625977 13.19758319854736 37.55139541625977 9.373013496398926 C 37.55139541625977 6.006933212280273 35.55545806884766 3.68557333946228 31.61902618408203 2.473443508148193 C 28.22010612487793 1.42681348323822 23.80355644226074 1.282543420791626 19.53715705871582 1.282543420791626 Z" stroke="none"/>
          <path d="M 1.024249792098999 9.631361961364746 C 1.023366570472717 9.544349670410156 1.022927045822144 9.458120346069336 1.022927045822144 9.373013496398926 C 1.022927045822144 5.952371120452881 2.920332431793213 3.544774532318115 6.665414810180664 2.208770751953125 C 6.577763557434082 2.234753131866455 6.491127014160156 2.261184692382813 6.404867172241211 2.288273334503174 C 2.717437028884888 3.446133375167847 0.999997079372406 5.409643650054932 0.999997079372406 8.467533111572266 C 0.999997079372406 8.838769912719727 1.007890939712524 9.227563858032227 1.024249792098999 9.631361961364746 M 38.05007553100586 9.63106632232666 C 38.06643676757813 9.227262496948242 38.07431793212891 8.838777542114258 38.07431793212891 8.467533111572266 C 38.07431793212891 5.409753322601318 36.35687637329102 3.446253538131714 32.66942596435547 2.288263559341431 C 32.58338928222656 2.261244058609009 32.49631881713867 2.234684228897095 32.40889358520508 2.208765506744385 C 36.15397644042969 3.544769287109375 38.05139541625977 5.952371120452881 38.05139541625977 9.373013496398926 C 38.05139541625977 9.458112716674805 38.05096054077148 9.544062614440918 38.05007553100586 9.63106632232666 M 19.53715705871582 34.43134307861328 C 15.79726696014404 34.43134307861328 12.49008750915527 33.43227386474609 9.707516670227051 31.4619140625 C 7.332887172698975 29.78051376342773 5.326756954193115 27.38742256164551 3.744507074356079 24.34915351867676 C 0.983767032623291 19.04601287841797 -2.941284265034483e-06 12.66813373565674 -2.941284265034483e-06 8.467533111572266 C -2.941284265034483e-06 4.957633495330811 1.996907114982605 2.624243497848511 6.105287075042725 1.334203481674194 C 9.839297294616699 0.1615834534168243 14.76733684539795 3.446655227890005e-06 19.53715705871582 3.446655227890005e-06 C 24.30655670166016 3.446655227890005e-06 29.23501777648926 0.1615834534168243 32.96903610229492 1.334203481674194 C 37.07699584960938 2.624243497848511 39.07431793212891 4.957633495330811 39.07431793212891 8.467533111572266 C 39.07431793212891 12.66813373565674 38.09055709838867 19.04611396789551 35.32980728149414 24.34915351867676 C 33.74798583984375 27.38700294494629 31.74142646789551 29.78009414672852 29.36638641357422 31.4619140625 C 26.58381652832031 33.43227386474609 23.27662658691406 34.43134307861328 19.53715705871582 34.43134307861328 Z M 19.53715705871582 1.782543420791626 C 11.06354713439941 1.782543420791626 2.022927045822144 2.369063377380371 2.022927045822144 9.373013496398926 C 2.022927045822144 13.1389331817627 2.905117034912109 18.85683250427246 5.380476951599121 23.61049270629883 C 8.502997398376465 29.60791397094727 13.26609706878662 32.6489143371582 19.53715705871582 32.6489143371582 C 25.80779647827148 32.6489143371582 30.57132720947266 29.60791397094727 33.69384765625 23.61049270629883 C 36.16919708251953 18.85631370544434 37.05139541625977 13.1386137008667 37.05139541625977 9.373013496398926 C 37.05139541625977 2.369063377380371 28.01076698303223 1.782543420791626 19.53715705871582 1.782543420791626 Z" stroke="none" fill="#707070"/>
        </g>
        <g id="Subtraction_44" data-name="Subtraction 44" transform="translate(43.958 0)" fill="#fff">
          <path d="M 19.53715705871582 33.93134307861328 C 15.90283679962158 33.93134307861328 12.69288730621338 32.96321487426758 9.996466636657715 31.05385398864746 C 7.687497138977051 29.41895294189453 5.73324728012085 27.08546257019043 4.187976837158203 24.11820411682129 C 1.468837022781372 18.89498329162598 0.4999970495700836 12.60879325866699 0.4999970495700836 8.467533111572266 C 0.4999970495700836 6.820473670959473 0.9552770853042603 5.487853527069092 1.89186704158783 4.393533229827881 C 2.833317041397095 3.293533563613892 4.301307201385498 2.424723386764526 6.255076885223389 1.811243414878845 C 9.924656867980957 0.6588534712791443 14.80733680725098 0.500003457069397 19.53715705871582 0.500003457069397 C 24.26697731018066 0.500003457069397 29.14965629577637 0.6588534712791443 32.8192253112793 1.811233401298523 C 34.77286529541016 2.424743413925171 36.24081802368164 3.293553352355957 37.18229675292969 4.393543243408203 C 38.11898803710938 5.487923622131348 38.57431793212891 6.820533275604248 38.57431793212891 8.467533111572266 C 38.57431793212891 12.60887336730957 37.60547637939453 18.89510345458984 34.88630676269531 24.11827278137207 C 33.34165573120117 27.0847339630127 31.38726615905762 29.4182243347168 29.07743644714355 31.05386352539063 C 26.38101768493652 32.96321487426758 23.17119789123535 33.93134307861328 19.53715705871582 33.93134307861328 Z M 19.53715705871582 1.282543420791626 C 15.27075672149658 1.282543420791626 10.85421752929688 1.42681348323822 7.455296993255615 2.473443508148193 C 3.518867015838623 3.68557333946228 1.522927045822144 6.006933212280273 1.522927045822144 9.373013496398926 C 1.522927045822144 13.19794368743896 2.419806957244873 19.00742340087891 4.936996936798096 23.84142303466797 C 8.152486801147461 30.01741409301758 13.064697265625 33.1489143371582 19.53715705871582 33.1489143371582 C 26.0096263885498 33.1489143371582 30.92183685302734 30.01741409301758 34.13733673095703 23.84139251708984 C 36.65451812744141 19.00687408447266 37.55139541625977 13.19758319854736 37.55139541625977 9.373013496398926 C 37.55139541625977 6.006933212280273 35.55545806884766 3.68557333946228 31.61902618408203 2.473443508148193 C 28.22010612487793 1.42681348323822 23.80355644226074 1.282543420791626 19.53715705871582 1.282543420791626 Z" stroke="none"/>
          <path d="M 1.024249792098999 9.631361961364746 C 1.023366570472717 9.544349670410156 1.022927045822144 9.458120346069336 1.022927045822144 9.373013496398926 C 1.022927045822144 5.952371120452881 2.920332431793213 3.544774532318115 6.665414810180664 2.208770751953125 C 6.577763557434082 2.234753131866455 6.491127014160156 2.261184692382813 6.404867172241211 2.288273334503174 C 2.717437028884888 3.446133375167847 0.999997079372406 5.409643650054932 0.999997079372406 8.467533111572266 C 0.999997079372406 8.838769912719727 1.007890939712524 9.227563858032227 1.024249792098999 9.631361961364746 M 38.05007553100586 9.63106632232666 C 38.06643676757813 9.227262496948242 38.07431793212891 8.838777542114258 38.07431793212891 8.467533111572266 C 38.07431793212891 5.409753322601318 36.35687637329102 3.446253538131714 32.66942596435547 2.288263559341431 C 32.58338928222656 2.261244058609009 32.49631881713867 2.234684228897095 32.40889358520508 2.208765506744385 C 36.15397644042969 3.544769287109375 38.05139541625977 5.952371120452881 38.05139541625977 9.373013496398926 C 38.05139541625977 9.458112716674805 38.05096054077148 9.544062614440918 38.05007553100586 9.63106632232666 M 19.53715705871582 34.43134307861328 C 15.79726696014404 34.43134307861328 12.49008750915527 33.43227386474609 9.707516670227051 31.4619140625 C 7.332887172698975 29.78051376342773 5.326756954193115 27.38742256164551 3.744507074356079 24.34915351867676 C 0.983767032623291 19.04601287841797 -2.941284265034483e-06 12.66813373565674 -2.941284265034483e-06 8.467533111572266 C -2.941284265034483e-06 4.957633495330811 1.996907114982605 2.624243497848511 6.105287075042725 1.334203481674194 C 9.839297294616699 0.1615834534168243 14.76733684539795 3.446655227890005e-06 19.53715705871582 3.446655227890005e-06 C 24.30655670166016 3.446655227890005e-06 29.23501777648926 0.1615834534168243 32.96903610229492 1.334203481674194 C 37.07699584960938 2.624243497848511 39.07431793212891 4.957633495330811 39.07431793212891 8.467533111572266 C 39.07431793212891 12.66813373565674 38.09055709838867 19.04611396789551 35.32980728149414 24.34915351867676 C 33.74798583984375 27.38700294494629 31.74142646789551 29.78009414672852 29.36638641357422 31.4619140625 C 26.58381652832031 33.43227386474609 23.27662658691406 34.43134307861328 19.53715705871582 34.43134307861328 Z M 19.53715705871582 1.782543420791626 C 11.06354713439941 1.782543420791626 2.022927045822144 2.369063377380371 2.022927045822144 9.373013496398926 C 2.022927045822144 13.1389331817627 2.905117034912109 18.85683250427246 5.380476951599121 23.61049270629883 C 8.502997398376465 29.60791397094727 13.26609706878662 32.6489143371582 19.53715705871582 32.6489143371582 C 25.80779647827148 32.6489143371582 30.57132720947266 29.60791397094727 33.69384765625 23.61049270629883 C 36.16919708251953 18.85631370544434 37.05139541625977 13.1386137008667 37.05139541625977 9.373013496398926 C 37.05139541625977 2.369063377380371 28.01076698303223 1.782543420791626 19.53715705871582 1.782543420791626 Z" stroke="none" fill="#707070"/>
        </g>
        <line id="Line_15" data-name="Line 15" x2="6.105" transform="translate(38.463 7.857)" fill="none" stroke="#707070" stroke-linecap="round" stroke-width="1"/>
      </g>
    </g>
    <g id="happyEyes" transform="translate(1677.918 237.998)">
      <path id="Path_196" data-name="Path 196" d="M0,3.748c6.669-7.6,14.815-1.3,14.815-1.3" transform="matrix(0.996, 0.087, -0.087, 0.996, 0.327, 0)" fill="none" stroke="#707070" stroke-linecap="round" stroke-width="2"/>
      <path id="Path_197" data-name="Path 197" d="M0,3.748c6.669-7.6,14.815-1.3,14.815-1.3" transform="matrix(0.996, 0.087, -0.087, 0.996, 45.506, 0)" fill="none" stroke="#707070" stroke-linecap="round" stroke-width="2"/>
    </g>
  </g>
</svg>
