<svg xmlns="http://www.w3.org/2000/svg" xmlns:xlink="http://www.w3.org/1999/xlink" width="375" height="800" viewBox="0 0 375 800">
  <defs>
    <linearGradient id="linear-gradient" x1="0.5" x2="0.5" y2="1" gradientUnits="objectBoundingBox">
      <stop offset="0" stop-color="#ff3243"/>
      <stop offset="1" stop-color="#f7b302"/>
    </linearGradient>
    <filter id="Body" x="144.559" y="68.522" width="99.21" height="79.952" filterUnits="userSpaceOnUse">
      <feOffset dx="5" dy="10" input="SourceAlpha"/>
      <feGaussianBlur stdDeviation="10" result="blur"/>
      <feFlood flood-opacity="0.4"/>
      <feComposite operator="in" in2="blur"/>
      <feComposite in="SourceGraphic"/>
    </filter>
  </defs>
  <g id="mob-AboutContent" transform="translate(0 -1435)">
    <g id="mob-AboutContent-2" data-name="mob-AboutContent" transform="translate(0 1435)">
      <rect id="Rectangle_44" data-name="Rectangle 44" width="375" height="800" fill="#2f2e3f"/>
      <path id="Subtraction_49" data-name="Subtraction 49" d="M48.512,150.3,0,115.47V0H94.576V115.47L48.512,150.3ZM4.45,7.07V111.676L48.4,143.231l41.731-31.555V7.07Z" transform="translate(135.722 0.376)" fill="url(#linear-gradient)"/>
      <path id="Path_213" data-name="Path 213" d="M0,0H72.973V93.294L37.2,120.429,0,93.294Z" transform="translate(147.014 14.974)" fill="#9a86fc"/>
      <g id="fevicon" transform="translate(151.942 25.445)">
        <g id="Me" transform="translate(0 0)">
          <g transform="matrix(1, 0, 0, 1, -151.94, -25.44)" filter="url(#Body)">
            <path id="Body-2" data-name="Body" d="M17.679,0h1.578A19.952,19.952,0,0,1,39.21,19.952v0a0,0,0,0,1,0,0H0a0,0,0,0,1,0,0V17.679A17.679,17.679,0,0,1,17.679,0Z" transform="translate(169.56 88.52)" fill="#d87e4b"/>
          </g>
          <path id="Neck" d="M0,0H13.828a0,0,0,0,1,0,0V4.988a6.251,6.251,0,0,1-6.251,6.251h0A7.577,7.577,0,0,1,0,3.662V0A0,0,0,0,1,0,0Z" transform="translate(28.413 58.783)" fill="#e7b598"/>
          <path id="Face" d="M5.452,0h39a0,0,0,0,1,0,0V16.83a22,22,0,0,1-22,22h0A22.45,22.45,0,0,1,0,16.381V5.452A5.452,5.452,0,0,1,5.452,0Z" transform="translate(8.208 23.109)" fill="#f3d1b0"/>
          <g id="Hair">
            <path id="Rectangle_12" data-name="Rectangle 12" d="M0,0H40.157A10.923,10.923,0,0,1,51.08,10.923v2.336a0,0,0,0,1,0,0H13.259A13.259,13.259,0,0,1,0,0V0A0,0,0,0,1,0,0Z" transform="translate(1.578)" fill="#59534b"/>
            <path id="Rectangle_13" data-name="Rectangle 13" d="M0,0H52.2a4.629,4.629,0,0,1,4.629,4.629v8.63a0,0,0,0,1,0,0H13.259A13.259,13.259,0,0,1,0,0V0A0,0,0,0,1,0,0Z" transform="translate(0 10.734)" fill="#6b6359"/>
            <path id="Rectangle_18" data-name="Rectangle 18" d="M0,0H0A4.8,4.8,0,0,1,4.8,4.8V16.29a0,0,0,0,1,0,0H0a0,0,0,0,1,0,0V0A0,0,0,0,1,0,0Z" transform="translate(52.659 10.734)" fill="#6b6359"/>
          </g>
          <path id="Ear" d="M0,0H2.683A6.851,6.851,0,0,1,9.534,6.851v0A6.851,6.851,0,0,1,2.683,13.7H0a0,0,0,0,1,0,0V0A0,0,0,0,1,0,0Z" transform="translate(52.659 27.024)" fill="#e7b598"/>
          <path id="Smile" d="M3195.45,2126.7H3215.6s1.545,9.768-9.39,9.9S3195.45,2126.7,3195.45,2126.7Z" transform="translate(-3176.732 -2079.487)" fill="#fff"/>
          <g id="Eyes" transform="translate(17.616 32.517)">
            <circle id="Ellipse_10" data-name="Ellipse 10" cx="1.989" cy="1.989" r="1.989" fill="#6b6359"/>
            <circle id="Ellipse_11" data-name="Ellipse 11" cx="1.989" cy="1.989" r="1.989" transform="translate(15.659)" fill="#6b6359"/>
          </g>
        </g>
        <g id="Glasses2" transform="translate(10.327 28.214)">
          <path id="Subtraction_45" data-name="Subtraction 45" d="M8.428,14.854a7.18,7.18,0,0,1-4.24-1.281A8.479,8.479,0,0,1,1.615,10.5,15.833,15.833,0,0,1,0,3.653C0,2.139.862,1.132,2.634.576A20.692,20.692,0,0,1,8.428,0a20.693,20.693,0,0,1,5.795.576c1.772.557,2.634,1.563,2.634,3.077A15.833,15.833,0,0,1,15.242,10.5a8.482,8.482,0,0,1-2.573,3.069A7.181,7.181,0,0,1,8.428,14.854Zm0-14.085C4.773.769.873,1.022.873,4.044a14.191,14.191,0,0,0,1.448,6.142,6.553,6.553,0,0,0,6.107,3.9,6.553,6.553,0,0,0,6.107-3.9,14.191,14.191,0,0,0,1.449-6.142C15.984,1.022,12.084.769,8.428.769Z" transform="translate(0 0)" fill="#707070"/>
          <path id="Subtraction_44" data-name="Subtraction 44" d="M8.428,14.854a7.18,7.18,0,0,1-4.24-1.281A8.479,8.479,0,0,1,1.615,10.5,15.833,15.833,0,0,1,0,3.653C0,2.139.862,1.132,2.634.576A20.692,20.692,0,0,1,8.428,0a20.693,20.693,0,0,1,5.795.576c1.772.557,2.634,1.563,2.634,3.077A15.833,15.833,0,0,1,15.242,10.5a8.482,8.482,0,0,1-2.573,3.069A7.181,7.181,0,0,1,8.428,14.854Zm0-14.085C4.773.769.873,1.022.873,4.044a14.191,14.191,0,0,0,1.448,6.142,6.553,6.553,0,0,0,6.107,3.9,6.553,6.553,0,0,0,6.107-3.9,14.191,14.191,0,0,0,1.449-6.142C15.984,1.022,12.084.769,8.428.769Z" transform="translate(18.964 0)" fill="#707070"/>
          <line id="Line_15" data-name="Line 15" x2="2.634" transform="translate(16.594 3.39)" fill="none" stroke="#707070" stroke-linecap="round" stroke-width="2"/>
        </g>
      </g>
    </g>
  </g>
</svg>
