<svg xmlns="http://www.w3.org/2000/svg" xmlns:xlink="http://www.w3.org/1999/xlink" width="382.897" height="285.808" viewBox="0 0 382.897 285.808">
  <defs>
    <filter id="Bg" x="0" y="0" width="382.897" height="279.319" filterUnits="userSpaceOnUse">
      <feOffset dy="20" input="SourceAlpha"/>
      <feGaussianBlur stdDeviation="25" result="blur"/>
      <feFlood flood-opacity="0.502"/>
      <feComposite operator="in" in2="blur"/>
      <feComposite in="SourceGraphic"/>
    </filter>
    <filter id="Base" x="29.409" y="103.296" width="327.922" height="182.512" filterUnits="userSpaceOnUse">
      <feOffset dy="20" input="SourceAlpha"/>
      <feGaussianBlur stdDeviation="25" result="blur-2"/>
      <feFlood flood-opacity="0.502"/>
      <feComposite operator="in" in2="blur-2"/>
      <feComposite in="SourceGraphic"/>
    </filter>
  </defs>
  <g id="myAvtarSmiling" transform="translate(-5532.608 116.408)">
    <g id="Group_15" data-name="Group 15" transform="translate(5607.607 -90.307)">
      <g id="My_Avatar" data-name="My Avatar" transform="translate(0 0)">
        <g id="BG-2" data-name="BG" transform="translate(0 0)">
          <g transform="matrix(1, 0, 0, 1, -75, -26.1)" filter="url(#Bg)">
            <path id="Bg-3" data-name="Bg" d="M1849.742,2044.594c18.982,15.291,64.785,34,97.018,18.455s42.371,50.648,6.517,75.43-19.449,28.305-97.94,27.437-62.862-5.731-99.677-46.713,17.628-29.791,27.118-56.154S1830.76,2029.3,1849.742,2044.594Z" transform="translate(-1668.03 -1981.71)" fill="#b3aae2"/>
          </g>
          <g id="Bg_stuff" data-name="Bg stuff" transform="translate(6.153 0)">
            <g id="Group_6" data-name="Group 6" transform="translate(0)">
              <g id="Small_leaf" data-name="Small leaf" transform="translate(156.013 43.65) rotate(21)">
                <path id="Path_92" data-name="Path 92" d="M4.446,5.506c-4.489,6.609-6.3,23.121-2,30.635S6.9,53.652,4.446,60.4s-4.753,11.653,0,24.533-4.14,23.8,0,30.053,14.566,6.248,18.706,0-3.833-15.333,0-30.053,2.607-15.946,0-24.533-2.952-17.2.209-26.082,2.374-20.772-2.355-28.811S8.936-1.1,4.446,5.506Z" transform="translate(0 0)" fill="#4cd137"/>
                <path id="Path_97" data-name="Path 97" d="M6.619,0C5.279,4.113.672,9.945.672,17.227S3.946,27.9,4.141,38.8.329,50.012.022,61.337,2.771,75.434,2.91,84.1.577,96,.577,96" transform="matrix(0.999, -0.035, 0.035, 0.999, 8.446, 11.226)" fill="none" stroke="#449f36" stroke-linecap="round" stroke-width="3"/>
              </g>
              <g id="Group_5" data-name="Group 5" transform="translate(0 10.522) rotate(-7)">
                <g id="Big_leaf" data-name="Big leaf" transform="translate(0 0)">
                  <path id="Path_95" data-name="Path 95" d="M6.078,7.527C-.058,16.561-2.53,39.134,3.339,49.405s6.093,23.939,2.74,33.161-6.5,15.93,0,33.537-5.659,32.542,0,41.083,19.913,8.542,25.572,0-5.24-20.961,0-41.083,3.563-21.8,0-33.537-4.035-23.51.285-35.655,3.245-28.4-3.22-39.385S12.215-1.508,6.078,7.527Z" transform="translate(0 11.389) rotate(-19)" fill="#4cd137"/>
                  <path id="Path_98" data-name="Path 98" d="M6.619,0C5.279,5.386.672,13.022.672,22.558S3.946,36.53,4.141,50.809.329,65.491.022,80.321s2.75,18.46,2.889,29.809S.577,125.717.577,125.717" transform="translate(23.069 34.77) rotate(-22)" fill="none" stroke="#449f36" stroke-linecap="round" stroke-width="3"/>
                </g>
              </g>
            </g>
            <g id="Small_plant" data-name="Small plant" transform="translate(28.097 57.875)">
              <path id="Path_96" data-name="Path 96" d="M1307.151,2671.024c-1.478,4.534-5.912,2.542-5.912,10.57s5.912,7.48,5.912,13.974-5.912,6.047-5.912,12,5.912,4.882,5.912,11.824-5.912,7.524-5.912,15.945,4.434,8.824,5.912,13.258-5.912,11.824-5.912,11.824" transform="translate(-1286.411 -2660.678)" fill="none" stroke="#707070" stroke-linecap="round" stroke-width="3"/>
              <line id="Line_6" data-name="Line 6" y1="7.841" x2="5.685" transform="translate(20.091 78.345)" fill="none" stroke="#707070" stroke-linecap="round" stroke-width="3"/>
              <line id="Line_9" data-name="Line 9" x1="5.685" y1="7.841" transform="translate(9.153 66.78)" fill="none" stroke="#707070" stroke-linecap="round" stroke-width="3"/>
              <line id="Line_10" data-name="Line 10" x1="5.685" y1="7.841" transform="translate(9.153 39.768)" fill="none" stroke="#707070" stroke-linecap="round" stroke-width="3"/>
              <line id="Line_11" data-name="Line 11" x1="5.685" y1="7.841" transform="translate(9.153 12.757)" fill="none" stroke="#707070" stroke-linecap="round" stroke-width="3"/>
              <line id="Line_7" data-name="Line 7" y1="7.841" x2="5.685" transform="translate(20.561 52.98)" fill="none" stroke="#707070" stroke-linecap="round" stroke-width="3"/>
              <line id="Line_8" data-name="Line 8" y1="7.841" x2="5.685" transform="translate(20.757 26.008)" fill="none" stroke="#707070" stroke-linecap="round" stroke-width="3"/>
              <g id="Group_7" data-name="Group 7" transform="matrix(0.799, -0.602, 0.602, 0.799, 0, 34.559)">
                <path id="Path_99" data-name="Path 99" d="M0,0C8.834,12.071,0,12.333,0,12.333Z" transform="translate(3.924 0)" fill="#f7d881"/>
                <path id="Path_100" data-name="Path 100" d="M3.926,0c-8.834,12.071,0,12.333,0,12.333Z" transform="translate(0 0)" fill="#f9e8b8"/>
              </g>
              <g id="Group_8" data-name="Group 8" transform="matrix(0.799, -0.602, 0.602, 0.799, 0.118, 8.018)">
                <path id="Path_99-2" data-name="Path 99" d="M0,0C8.834,12.071,0,12.333,0,12.333Z" transform="translate(3.924 0)" fill="#f7d881"/>
                <path id="Path_100-2" data-name="Path 100" d="M3.926,0c-8.834,12.071,0,12.333,0,12.333Z" transform="translate(0 0)" fill="#f9e8b8"/>
              </g>
              <g id="Group_9" data-name="Group 9" transform="matrix(0.799, -0.602, 0.602, 0.799, 0, 61.571)">
                <path id="Path_99-3" data-name="Path 99" d="M0,0C8.834,12.071,0,12.333,0,12.333Z" transform="translate(3.924 0)" fill="#f7d881"/>
                <path id="Path_100-3" data-name="Path 100" d="M3.926,0c-8.834,12.071,0,12.333,0,12.333Z" transform="translate(0 0)" fill="#f9e8b8"/>
              </g>
              <g id="Group_10" data-name="Group 10" transform="matrix(-0.799, -0.602, 0.602, -0.799, 28.773, 81.339)">
                <path id="Path_99-4" data-name="Path 99" d="M0,12.333C8.834.262,0,0,0,0Z" transform="translate(3.924 0)" fill="#f7d881"/>
                <path id="Path_100-4" data-name="Path 100" d="M3.926,12.333C-4.908.262,3.926,0,3.926,0Z" transform="translate(0 0)" fill="#f9e8b8"/>
              </g>
              <g id="Group_11" data-name="Group 11" transform="matrix(-0.799, -0.602, 0.602, -0.799, 28.773, 56.876)">
                <path id="Path_99-5" data-name="Path 99" d="M0,12.333C8.834.262,0,0,0,0Z" transform="translate(3.924 0)" fill="#f7d881"/>
                <path id="Path_100-5" data-name="Path 100" d="M3.926,12.333C-4.908.262,3.926,0,3.926,0Z" transform="translate(0 0)" fill="#f9e8b8"/>
              </g>
              <g id="Group_12" data-name="Group 12" transform="matrix(-0.799, -0.602, 0.602, -0.799, 28.773, 29.942)">
                <path id="Path_99-6" data-name="Path 99" d="M0,12.333C8.834.262,0,0,0,0Z" transform="translate(3.924 0)" fill="#f7d881"/>
                <path id="Path_100-6" data-name="Path 100" d="M3.926,12.333C-4.908.262,3.926,0,3.926,0Z" transform="translate(0 0)" fill="#f9e8b8"/>
              </g>
              <g id="Group_14" data-name="Group 14" transform="matrix(-0.799, -0.602, 0.602, -0.799, 23.206, 14.574)">
                <path id="Path_99-7" data-name="Path 99" d="M0,12.333C8.834.262,0,0,0,0Z" transform="translate(3.924 0)" fill="#f7d881"/>
                <path id="Path_100-7" data-name="Path 100" d="M3.926,12.333C-4.908.262,3.926,0,3.926,0Z" transform="translate(0 0)" fill="#f9e8b8"/>
              </g>
            </g>
            <g id="Big_plant" data-name="Big plant" transform="translate(151.735 24.244)">
              <path id="Path_96-2" data-name="Path 96" d="M1308.734,2671.024c-1.874,5.749-7.5,3.223-7.5,13.4s7.5,9.482,7.5,17.716-7.5,7.666-7.5,15.217,7.5,6.189,7.5,14.99-7.5,9.539-7.5,20.214,5.621,11.186,7.5,16.807-7.5,14.99-7.5,14.99" transform="translate(-1282.441 -2657.908)" fill="none" stroke="#707070" stroke-linecap="round" stroke-width="3"/>
              <line id="Line_6-2" data-name="Line 6" y1="9.94" x2="7.207" transform="translate(25.47 99.323)" fill="none" stroke="#707070" stroke-linecap="round" stroke-width="3"/>
              <line id="Line_9-2" data-name="Line 9" x1="7.207" y1="9.94" transform="translate(11.604 84.661)" fill="none" stroke="#707070" stroke-linecap="round" stroke-width="3"/>
              <line id="Line_10-2" data-name="Line 10" x1="7.207" y1="9.94" transform="translate(11.604 50.417)" fill="none" stroke="#707070" stroke-linecap="round" stroke-width="3"/>
              <line id="Line_11-2" data-name="Line 11" x1="7.207" y1="9.94" transform="translate(11.604 16.172)" fill="none" stroke="#707070" stroke-linecap="round" stroke-width="3"/>
              <line id="Line_7-2" data-name="Line 7" y1="9.94" x2="7.207" transform="translate(26.067 67.166)" fill="none" stroke="#707070" stroke-linecap="round" stroke-width="3"/>
              <line id="Line_8-2" data-name="Line 8" y1="9.94" x2="7.207" transform="translate(26.315 32.971)" fill="none" stroke="#707070" stroke-linecap="round" stroke-width="3"/>
              <g id="Group_7-2" data-name="Group 7" transform="matrix(0.799, -0.602, 0.602, 0.799, 0, 43.813)">
                <path id="Path_99-8" data-name="Path 99" d="M0,0C11.2,15.3,0,15.635,0,15.635Z" transform="translate(4.975 0)" fill="#f7d881"/>
                <path id="Path_100-8" data-name="Path 100" d="M4.978,0c-11.2,15.3,0,15.635,0,15.635Z" transform="translate(0 0)" fill="#f9e8b8"/>
              </g>
              <g id="Group_8-2" data-name="Group 8" transform="matrix(0.799, -0.602, 0.602, 0.799, 0.149, 10.164)">
                <path id="Path_99-9" data-name="Path 99" d="M0,0C11.2,15.3,0,15.635,0,15.635Z" transform="translate(4.975 0)" fill="#f7d881"/>
                <path id="Path_100-9" data-name="Path 100" d="M4.978,0c-11.2,15.3,0,15.635,0,15.635Z" transform="translate(0 0)" fill="#f9e8b8"/>
              </g>
              <g id="Group_9-2" data-name="Group 9" transform="matrix(0.799, -0.602, 0.602, 0.799, 0, 78.057)">
                <path id="Path_99-10" data-name="Path 99" d="M0,0C11.2,15.3,0,15.635,0,15.635Z" transform="translate(4.975 0)" fill="#f7d881"/>
                <path id="Path_100-10" data-name="Path 100" d="M4.978,0c-11.2,15.3,0,15.635,0,15.635Z" transform="translate(0 0)" fill="#f9e8b8"/>
              </g>
              <g id="Group_10-2" data-name="Group 10" transform="matrix(-0.799, -0.602, 0.602, -0.799, 36.477, 103.119)">
                <path id="Path_99-11" data-name="Path 99" d="M0,15.635C11.2.333,0,0,0,0Z" transform="translate(4.975 0)" fill="#f7d881"/>
                <path id="Path_100-11" data-name="Path 100" d="M4.978,15.635C-6.222.333,4.978,0,4.978,0Z" transform="translate(0 0)" fill="#f9e8b8"/>
              </g>
              <g id="Group_11-2" data-name="Group 11" transform="matrix(-0.799, -0.602, 0.602, -0.799, 36.477, 72.105)">
                <path id="Path_99-12" data-name="Path 99" d="M0,15.635C11.2.333,0,0,0,0Z" transform="translate(4.975 0)" fill="#f7d881"/>
                <path id="Path_100-12" data-name="Path 100" d="M4.978,15.635C-6.222.333,4.978,0,4.978,0Z" transform="translate(0 0)" fill="#f9e8b8"/>
              </g>
              <g id="Group_12-2" data-name="Group 12" transform="matrix(-0.799, -0.602, 0.602, -0.799, 36.477, 37.96)">
                <path id="Path_99-13" data-name="Path 99" d="M0,15.635C11.2.333,0,0,0,0Z" transform="translate(4.975 0)" fill="#f7d881"/>
                <path id="Path_100-13" data-name="Path 100" d="M4.978,15.635C-6.222.333,4.978,0,4.978,0Z" transform="translate(0 0)" fill="#f9e8b8"/>
              </g>
              <g id="Group_14-2" data-name="Group 14" transform="matrix(-0.799, -0.602, 0.602, -0.799, 29.419, 18.476)">
                <path id="Path_99-14" data-name="Path 99" d="M0,15.635C11.2.333,0,0,0,0Z" transform="translate(4.975 0)" fill="#f7d881"/>
                <path id="Path_100-14" data-name="Path 100" d="M4.978,15.635C-6.222.333,4.978,0,4.978,0Z" transform="translate(0 0)" fill="#f9e8b8"/>
              </g>
            </g>
          </g>
          <g transform="matrix(1, 0, 0, 1, -75, -26.1)" filter="url(#Base)">
            <path id="Base-2" data-name="Base" d="M62.964,288.679c48.259,0,89.486,32.959,88.131,32.508s-39.873,0-88.131,0-89.758-.451-89.758,0S14.7,288.679,62.964,288.679Z" transform="translate(131.2 -130.38)" fill="#7d6eca"/>
          </g>
        </g>
      </g>
      <g id="ME" transform="translate(68.71 47.994)">
        <g id="Me-2" data-name="Me" transform="translate(0 0)">
          <path id="Body" d="M24.852,0h2.219A28.047,28.047,0,0,1,55.117,28.047v0a0,0,0,0,1,0,0H0a0,0,0,0,1,0,0v-3.2A24.852,24.852,0,0,1,24.852,0Z" transform="translate(24.763 88.667)" fill="#d87e4b"/>
          <path id="Neck" d="M0,0H19.438a0,0,0,0,1,0,0V7.012A8.787,8.787,0,0,1,10.651,15.8h0A10.651,10.651,0,0,1,0,5.148V0A0,0,0,0,1,0,0Z" transform="translate(39.94 82.632)" fill="#e7b598"/>
          <path id="Face" d="M7.664,0h54.82a0,0,0,0,1,0,0V23.658A30.927,30.927,0,0,1,31.558,54.585h0A31.558,31.558,0,0,1,0,23.027V7.664A7.664,7.664,0,0,1,7.664,0Z" transform="translate(11.538 32.485)" fill="#f3d1b0"/>
          <g id="Hair">
            <path id="Rectangle_12" data-name="Rectangle 12" d="M0,0H56.449A15.355,15.355,0,0,1,71.8,15.355v3.284a0,0,0,0,1,0,0H18.639A18.639,18.639,0,0,1,0,0V0A0,0,0,0,1,0,0Z" transform="translate(2.219)" fill="#59534b"/>
            <path id="Rectangle_13" data-name="Rectangle 13" d="M0,0H73.373A6.507,6.507,0,0,1,79.88,6.507V18.639a0,0,0,0,1,0,0H18.639A18.639,18.639,0,0,1,0,0V0A0,0,0,0,1,0,0Z" transform="translate(0 15.089)" fill="#6b6359"/>
            <path id="Rectangle_18" data-name="Rectangle 18" d="M0,0H0A6.745,6.745,0,0,1,6.745,6.745V22.9a0,0,0,0,1,0,0H0a0,0,0,0,1,0,0V0A0,0,0,0,1,0,0Z" transform="translate(74.022 15.089)" fill="#6b6359"/>
          </g>
          <path id="Ear" d="M0,0H3.772A9.63,9.63,0,0,1,13.4,9.63v0a9.63,9.63,0,0,1-9.63,9.63H0a0,0,0,0,1,0,0V0A0,0,0,0,1,0,0Z" transform="translate(74.022 37.988)" fill="#e7b598"/>
          <path id="Smile" d="M3195.45,2126.7h28.319s2.172,13.731-13.2,13.92S3195.45,2126.7,3195.45,2126.7Z" transform="translate(-3169.138 -2060.334)" fill="#fff"/>
        </g>
        <g id="Glasses2" transform="translate(14.516 39.66)">
          <g id="Subtraction_45" data-name="Subtraction 45" transform="translate(0 0)" fill="#fff">
            <path d="M 11.84801197052002 20.38036346435547 C 9.685582160949707 20.38036346435547 7.777212142944336 19.80543327331543 6.17592191696167 18.67153358459473 C 4.801452159881592 17.69832420349121 3.636791944503784 16.30667304992676 2.714272022247314 14.53522396087646 C 1.081701993942261 11.39920330047607 0.5000019669532776 7.623133659362793 0.5000019669532776 5.135003566741943 C 0.5000019669532776 3.227283716201782 1.565201997756958 2.004283666610718 3.852241992950439 1.286153674125671 C 6.052321910858154 0.5952436327934265 8.995362281799316 0.5000036358833313 11.84801197052002 0.5000036358833313 C 14.70066165924072 0.5000036358833313 17.64370155334473 0.5952436327934265 19.8437614440918 1.286143660545349 C 22.13082122802734 2.004353523254395 23.19602203369141 3.227353572845459 23.19602203369141 5.135003566741943 C 23.19602203369141 7.623173713684082 22.61432266235352 11.39926338195801 20.98172187805176 14.53529357910156 C 20.0595817565918 16.30623435974121 18.89483261108398 17.69788360595703 17.51984214782715 18.67154312133789 C 15.9185619354248 19.80543327331543 14.01028156280518 20.38036346435547 11.84801197052002 20.38036346435547 Z M 11.84801197052002 0.58099365234375 C 9.245342254638672 0.58099365234375 6.549332141876221 0.6695436239242554 4.463242053985596 1.3119136095047 C 1.983901977539063 2.075373649597168 0.7267719507217407 3.546393632888794 0.7267719507217407 5.684123516082764 C 0.7267719507217407 8.026983261108398 1.276512026786804 11.58615398406982 2.819422006607056 14.54915332794189 C 4.805992126464844 18.36475372314453 7.84365177154541 20.2994327545166 11.84801197052002 20.2994327545166 C 15.85237216949463 20.2994327545166 18.8900318145752 18.36475372314453 20.87661170959473 14.54912376403809 C 22.41951179504395 11.58582401275635 22.96925163269043 8.026763916015625 22.96925163269043 5.684123516082764 C 22.96925163269043 3.546393632888794 21.71212196350098 2.075373649597168 19.2327823638916 1.3119136095047 C 17.14669227600098 0.6695436239242554 14.45068168640137 0.58099365234375 11.84801197052002 0.58099365234375 Z" stroke="none"/>
            <path d="M 11.84801197052002 20.88036346435547 C 9.580012321472168 20.88036346435547 7.574421882629395 20.27449417114258 5.886971950531006 19.07959365844727 C 4.446921825408936 18.05994415283203 3.230331897735596 16.60868453979492 2.270802021026611 14.76617336273193 C 0.5965919494628906 11.55016326904297 1.970520088434569e-06 7.682403564453125 1.970520088434569e-06 5.135003566741943 C 1.970520088434569e-06 3.006483554840088 1.210991978645325 1.591433644294739 3.702451944351196 0.809113621711731 C 5.966891765594482 0.0979936420917511 8.955431938171387 3.63952631232678e-06 11.84801197052002 3.63952631232678e-06 C 14.74034214019775 3.63952631232678e-06 17.7291316986084 0.0979936420917511 19.99357223510742 0.809113621711731 C 22.48478126525879 1.591433644294739 23.69602203369141 3.006483554840088 23.69602203369141 5.135003566741943 C 23.69602203369141 7.682403564453125 23.09943199157715 11.5502233505249 21.42522239685059 14.76617336273193 C 20.46595191955566 16.60843276977539 19.24910163879395 18.05968284606934 17.80879211425781 19.07959365844727 C 16.12135124206543 20.27449417114258 14.11576175689697 20.88036346435547 11.84801197052002 20.88036346435547 Z M 11.84801197052002 1.08099365234375 C 6.709321975708008 1.08099365234375 1.226771950721741 1.436683654785156 1.226771950721741 5.684123516082764 C 1.226771950721741 7.967903614044189 1.761762022972107 11.43544387817383 3.262902021408081 14.31822395324707 C 5.156511783599854 17.95527458190918 8.045022010803223 19.7994327545166 11.84801197052002 19.7994327545166 C 15.65075206756592 19.7994327545166 18.53951263427734 17.95527458190918 20.4331226348877 14.31822395324707 C 21.93426132202148 11.43512344360352 22.46925163269043 7.967713832855225 22.46925163269043 5.684123516082764 C 22.46925163269043 1.436683654785156 16.98670196533203 1.08099365234375 11.84801197052002 1.08099365234375 Z" stroke="none" fill="#707070"/>
          </g>
          <g id="Subtraction_44" data-name="Subtraction 44" transform="translate(26.658 0)" fill="#fff">
            <path d="M 11.84801197052002 20.38036346435547 C 9.685582160949707 20.38036346435547 7.777212142944336 19.80543327331543 6.17592191696167 18.67153358459473 C 4.801452159881592 17.69832420349121 3.636791944503784 16.30667304992676 2.714272022247314 14.53522396087646 C 1.081701993942261 11.39920330047607 0.5000019669532776 7.623133659362793 0.5000019669532776 5.135003566741943 C 0.5000019669532776 3.227283716201782 1.565201997756958 2.004283666610718 3.852241992950439 1.286153674125671 C 6.052321910858154 0.5952436327934265 8.995362281799316 0.5000036358833313 11.84801197052002 0.5000036358833313 C 14.70066165924072 0.5000036358833313 17.64370155334473 0.5952436327934265 19.8437614440918 1.286143660545349 C 22.13082122802734 2.004353523254395 23.19602203369141 3.227353572845459 23.19602203369141 5.135003566741943 C 23.19602203369141 7.623173713684082 22.61432266235352 11.39926338195801 20.98172187805176 14.53529357910156 C 20.0595817565918 16.30623435974121 18.89483261108398 17.69788360595703 17.51984214782715 18.67154312133789 C 15.9185619354248 19.80543327331543 14.01028156280518 20.38036346435547 11.84801197052002 20.38036346435547 Z M 11.84801197052002 0.58099365234375 C 9.245342254638672 0.58099365234375 6.549332141876221 0.6695436239242554 4.463242053985596 1.3119136095047 C 1.983901977539063 2.075373649597168 0.7267719507217407 3.546393632888794 0.7267719507217407 5.684123516082764 C 0.7267719507217407 8.026983261108398 1.276512026786804 11.58615398406982 2.819422006607056 14.54915332794189 C 4.805992126464844 18.36475372314453 7.84365177154541 20.2994327545166 11.84801197052002 20.2994327545166 C 15.85237216949463 20.2994327545166 18.8900318145752 18.36475372314453 20.87661170959473 14.54912376403809 C 22.41951179504395 11.58582401275635 22.96925163269043 8.026763916015625 22.96925163269043 5.684123516082764 C 22.96925163269043 3.546393632888794 21.71212196350098 2.075373649597168 19.2327823638916 1.3119136095047 C 17.14669227600098 0.6695436239242554 14.45068168640137 0.58099365234375 11.84801197052002 0.58099365234375 Z" stroke="none"/>
            <path d="M 11.84801197052002 20.88036346435547 C 9.580012321472168 20.88036346435547 7.574421882629395 20.27449417114258 5.886971950531006 19.07959365844727 C 4.446921825408936 18.05994415283203 3.230331897735596 16.60868453979492 2.270802021026611 14.76617336273193 C 0.5965919494628906 11.55016326904297 1.970520088434569e-06 7.682403564453125 1.970520088434569e-06 5.135003566741943 C 1.970520088434569e-06 3.006483554840088 1.210991978645325 1.591433644294739 3.702451944351196 0.809113621711731 C 5.966891765594482 0.0979936420917511 8.955431938171387 3.63952631232678e-06 11.84801197052002 3.63952631232678e-06 C 14.74034214019775 3.63952631232678e-06 17.7291316986084 0.0979936420917511 19.99357223510742 0.809113621711731 C 22.48478126525879 1.591433644294739 23.69602203369141 3.006483554840088 23.69602203369141 5.135003566741943 C 23.69602203369141 7.682403564453125 23.09943199157715 11.5502233505249 21.42522239685059 14.76617336273193 C 20.46595191955566 16.60843276977539 19.24910163879395 18.05968284606934 17.80879211425781 19.07959365844727 C 16.12135124206543 20.27449417114258 14.11576175689697 20.88036346435547 11.84801197052002 20.88036346435547 Z M 11.84801197052002 1.08099365234375 C 6.709321975708008 1.08099365234375 1.226771950721741 1.436683654785156 1.226771950721741 5.684123516082764 C 1.226771950721741 7.967903614044189 1.761762022972107 11.43544387817383 3.262902021408081 14.31822395324707 C 5.156511783599854 17.95527458190918 8.045022010803223 19.7994327545166 11.84801197052002 19.7994327545166 C 15.65075206756592 19.7994327545166 18.53951263427734 17.95527458190918 20.4331226348877 14.31822395324707 C 21.93426132202148 11.43512344360352 22.46925163269043 7.967713832855225 22.46925163269043 5.684123516082764 C 22.46925163269043 1.436683654785156 16.98670196533203 1.08099365234375 11.84801197052002 1.08099365234375 Z" stroke="none" fill="#707070"/>
          </g>
          <line id="Line_15" data-name="Line 15" x2="3.702" transform="translate(23.326 4.765)" fill="none" stroke="#707070" stroke-linecap="round" stroke-width="1"/>
        </g>
      </g>
    </g>
    <g id="happyEyes" transform="translate(5696.81 5.737)">
      <path id="Path_196" data-name="Path 196" d="M0,2.273c4.045-4.606,8.985-.786,8.985-.786" transform="matrix(0.996, 0.087, -0.087, 0.996, 0.198, 0)" fill="none" stroke="#707070" stroke-linecap="round" stroke-width="2"/>
      <path id="Path_197" data-name="Path 197" d="M0,2.273c4.045-4.606,8.985-.786,8.985-.786" transform="matrix(0.996, 0.087, -0.087, 0.996, 27.596, 0)" fill="none" stroke="#707070" stroke-linecap="round" stroke-width="2"/>
    </g>
  </g>
</svg>
