<svg xmlns="http://www.w3.org/2000/svg" xmlns:xlink="http://www.w3.org/1999/xlink" width="1920" height="1080" viewBox="0 0 1920 1080">
  <defs>
    <linearGradient id="linear-gradient" x1="0.5" x2="0.5" y2="1" gradientUnits="objectBoundingBox">
      <stop offset="0" stop-color="#f7b400"/>
      <stop offset="1" stop-color="#fd2e44"/>
    </linearGradient>
    <filter id="Body" x="304.814" y="611.479" width="189.315" height="125.803" filterUnits="userSpaceOnUse">
      <feOffset dx="5" dy="10" input="SourceAlpha"/>
      <feGaussianBlur stdDeviation="10" result="blur"/>
      <feFlood flood-opacity="0.4"/>
      <feComposite operator="in" in2="blur"/>
      <feComposite in="SourceGraphic"/>
    </filter>
    <linearGradient id="linear-gradient-2" x1="1" y1="0.679" x2="0" y2="0.691" gradientUnits="objectBoundingBox">
      <stop offset="0" stop-color="#ff2a47"/>
      <stop offset="1" stop-color="#f7b500"/>
    </linearGradient>
  </defs>
  <g id="section-1" transform="translate(0.233 -1681.068)">
    <g id="section-1-2" data-name="section-1" transform="translate(-0.233 1681.068)">
      <g id="section-1-3" data-name="section-1">
        <path id="Path_190" data-name="Path 190" d="M0,0H1919.767V1078.368H0Z" transform="translate(0.233 0.932)" fill="#2f2e3f"/>
        <path id="Path_193" data-name="Path 193" d="M5976.506,1244.428C6038.451,1084.262,6094.383,1025.4,6262.7,913.6s264.009-53.928,386.56-116.371,144.553-127.305,144.03-129.767c0,0,107.212.016,107.208,0C6917.3,729.9,6937.178,810,6837.036,913.6s-249.172,62.824-368.221,180.614-124.883,290.545-124.883,290.545,7.08,308.755-163.965,361.711c-.049.121-204.153.026-204.2,0S5976.5,1244.432,5976.506,1244.428Z" transform="translate(-5975.767 -666.529)" fill="#8a2be2"/>
        <path id="Path_194" data-name="Path 194" d="M5976.506,1244.753c71.56-180.672,117.877-220.372,286.191-332.851s264.009-54.257,386.56-117.081,100.885-150.859,100.361-153.335c0,0,145.876.016,145.873,0,16.807,62.823,41.686,166.186-58.456,270.417s-249.172,63.208-368.221,181.718-124.883,292.319-124.883,292.319l-141.758,333.952H5898.835S5904.947,1425.425,5976.506,1244.753Z" transform="translate(-5846.767 -641.068)" fill="#a25de2"/>
        <path id="Path_195" data-name="Path 195" d="M5976.506,1249.611c71.56-182.184,117.877-222.216,286.191-335.636s264.009-54.711,386.56-118.061,95.091-152.348,94.568-154.846c0,0,131.9.017,131.9,0,16.807,63.35,61.456,167.8-38.686,272.907s-249.172,63.737-368.221,183.237S6272.951,1289.2,6262.7,1450.373s0,269.584,0,269.969c-.084.06-358.574,0-358.574,0S5904.947,1431.794,5976.506,1249.611Z" transform="translate(-5725.767 -641.068)" fill="#b181dd"/>
        <circle id="Ellipse_41" data-name="Ellipse 41" cx="177" cy="177" r="177" transform="translate(197.233 377.438)" fill="#826afa"/>
        <path id="Path_214" data-name="Path 214" d="M177.01,0V354s-178.583.4-177-177S177.01,0,177.01,0Z" transform="translate(375.303 294.488) rotate(45)" fill="#9a86fc"/>
        <path id="Subtraction_50" data-name="Subtraction 50" d="M220,440a221.622,221.622,0,0,1-44.337-4.47A218.787,218.787,0,0,1,97,402.428a220.646,220.646,0,0,1-79.708-96.794,218.889,218.889,0,0,1-12.819-41.3,222.139,222.139,0,0,1,0-88.675A218.785,218.785,0,0,1,37.573,97a220.648,220.648,0,0,1,96.794-79.707,218.912,218.912,0,0,1,41.3-12.819,222.143,222.143,0,0,1,88.675,0A218.785,218.785,0,0,1,343,37.573a220.636,220.636,0,0,1,79.708,96.794,218.882,218.882,0,0,1,12.819,41.3,222.139,222.139,0,0,1,0,88.675A218.8,218.8,0,0,1,402.428,343a220.651,220.651,0,0,1-96.793,79.708,218.882,218.882,0,0,1-41.3,12.819A221.622,221.622,0,0,1,220,440Zm0-426C106.412,14,14,106.411,14,220s92.412,206,206,206,206-92.411,206-206S333.589,14,220,14Z" transform="translate(154.233 327.388)" fill="url(#linear-gradient)"/>
        <g id="fevicon" transform="translate(271.717 423.45)">
          <g id="Me">
            <g transform="matrix(1, 0, 0, 1, -271.72, -423.45)" filter="url(#Body)">
              <path id="Body-2" data-name="Body" d="M58.306,0h5.206a65.8,65.8,0,0,1,65.8,65.8v0a0,0,0,0,1,0,0H0a0,0,0,0,1,0,0v-7.5A58.306,58.306,0,0,1,58.306,0Z" transform="translate(329.81 631.48)" fill="#d87e4b"/>
            </g>
            <path id="Neck" d="M0,0H45.6a0,0,0,0,1,0,0V16.451A20.615,20.615,0,0,1,24.988,37.066h0A24.988,24.988,0,0,1,0,12.078V0A0,0,0,0,1,0,0Z" transform="translate(93.706 193.868)" fill="#e7b598"/>
            <path id="Face" d="M17.981,0H146.6a0,0,0,0,1,0,0V55.507A72.559,72.559,0,0,1,74.04,128.065h0A74.04,74.04,0,0,1,0,54.026V17.981A17.981,17.981,0,0,1,17.981,0Z" transform="translate(27.071 76.214)" fill="#f3d1b0"/>
            <g id="Hair">
              <path id="Rectangle_12" data-name="Rectangle 12" d="M0,0H132.438a36.025,36.025,0,0,1,36.025,36.025v7.7a0,0,0,0,1,0,0H43.73A43.73,43.73,0,0,1,0,0V0A0,0,0,0,1,0,0Z" transform="translate(5.206)" fill="#59534b"/>
              <path id="Rectangle_13" data-name="Rectangle 13" d="M0,0H172.146a15.267,15.267,0,0,1,15.267,15.267V43.73a0,0,0,0,1,0,0H43.73A43.73,43.73,0,0,1,0,0V0A0,0,0,0,1,0,0Z" transform="translate(0 35.4)" fill="#6b6359"/>
              <path id="Rectangle_18" data-name="Rectangle 18" d="M0,0H0A15.826,15.826,0,0,1,15.826,15.826v37.9a0,0,0,0,1,0,0H0a0,0,0,0,1,0,0V0A0,0,0,0,1,0,0Z" transform="translate(173.669 35.4)" fill="#6b6359"/>
            </g>
            <path id="Ear" d="M0,0H8.85A22.594,22.594,0,0,1,31.444,22.594v0A22.594,22.594,0,0,1,8.85,45.187H0a0,0,0,0,1,0,0V0A0,0,0,0,1,0,0Z" transform="translate(173.669 89.125)" fill="#e7b598"/>
            <path id="Smile" d="M3195.45,2126.7h66.442s5.1,32.214-30.969,32.658S3195.45,2126.7,3195.45,2126.7Z" transform="translate(-3133.718 -1970.999)" fill="#fff"/>
            <g id="Eyes" transform="translate(58.098 107.242)">
              <circle id="Ellipse_10" data-name="Ellipse 10" cx="6.559" cy="6.559" r="6.559" fill="#6b6359"/>
              <circle id="Ellipse_11" data-name="Ellipse 11" cx="6.559" cy="6.559" r="6.559" transform="translate(51.643)" fill="#6b6359"/>
            </g>
          </g>
          <g id="Glasses2" transform="translate(34.057 93.049)">
            <path id="Subtraction_45" data-name="Subtraction 45" d="M27.8,48.989a23.681,23.681,0,0,1-13.985-4.225,27.964,27.964,0,0,1-8.484-10.12A52.216,52.216,0,0,1,0,12.048C0,7.054,2.841,3.734,8.687,1.9,14,.23,21.011,0,27.8,0S41.6.23,46.908,1.9c5.845,1.836,8.687,5.155,8.687,10.149a52.216,52.216,0,0,1-5.328,22.6,27.975,27.975,0,0,1-8.484,10.12A23.684,23.684,0,0,1,27.8,48.989Zm0-46.453c-12.056,0-24.919.835-24.919,10.8A46.8,46.8,0,0,0,7.655,33.593c4.443,8.533,11.22,12.86,20.142,12.86s15.7-4.327,20.142-12.86a46.8,46.8,0,0,0,4.777-20.257C52.717,3.371,39.853,2.536,27.8,2.536Z" transform="translate(0 0)" fill="#707070"/>
            <path id="Subtraction_44" data-name="Subtraction 44" d="M27.8,48.989a23.681,23.681,0,0,1-13.985-4.225,27.964,27.964,0,0,1-8.484-10.12A52.216,52.216,0,0,1,0,12.048C0,7.054,2.841,3.734,8.687,1.9,14,.23,21.011,0,27.8,0S41.6.23,46.908,1.9c5.845,1.836,8.687,5.155,8.687,10.149a52.216,52.216,0,0,1-5.328,22.6,27.975,27.975,0,0,1-8.484,10.12A23.684,23.684,0,0,1,27.8,48.989Zm0-46.453c-12.056,0-24.919.835-24.919,10.8A46.8,46.8,0,0,0,7.655,33.593c4.443,8.533,11.22,12.86,20.142,12.86s15.7-4.327,20.142-12.86a46.8,46.8,0,0,0,4.777-20.257C52.717,3.371,39.853,2.536,27.8,2.536Z" transform="translate(62.544 0)" fill="#707070"/>
            <line id="Line_15" data-name="Line 15" x2="8.687" transform="translate(54.726 11.179)" fill="none" stroke="#707070" stroke-linecap="round" stroke-width="2"/>
          </g>
        </g>
      </g>
      <path id="Path_228" data-name="Path 228" d="M8301.224-1309.753c1833.054-8.718,1838.063,84.819,1919.767-323.267-.042,0,0,351.894,0,351.894l-1919.767-.154Z" transform="translate(-8300.99 2360.934)" fill="url(#linear-gradient-2)"/>
    </g>
  </g>
</svg>
