<svg xmlns="http://www.w3.org/2000/svg" xmlns:xlink="http://www.w3.org/1999/xlink" width="1920" height="1080" viewBox="0 0 1920 1080">
  <defs>
    <linearGradient id="linear-gradient" x1="1" y1="0.679" x2="0" y2="0.691" gradientUnits="objectBoundingBox">
      <stop offset="0" stop-color="#ff2a47"/>
      <stop offset="1" stop-color="#f7b500"/>
    </linearGradient>
    <linearGradient id="linear-gradient-2" x1="0.5" x2="0.5" y2="1" gradientUnits="objectBoundingBox">
      <stop offset="0" stop-color="#f7b400"/>
      <stop offset="1" stop-color="#fd2e44"/>
    </linearGradient>
    <filter id="Body" x="304.581" y="559.072" width="189.315" height="125.803" filterUnits="userSpaceOnUse">
      <feOffset dx="5" dy="10" input="SourceAlpha"/>
      <feGaussianBlur stdDeviation="10" result="blur"/>
      <feFlood flood-opacity="0.4"/>
      <feComposite operator="in" in2="blur"/>
      <feComposite in="SourceGraphic"/>
    </filter>
  </defs>
  <g id="section-1" transform="translate(0 -1722)">
    <path id="Path_190" data-name="Path 190" d="M0,0H1920V1077.105H0Z" transform="translate(0 1722)" fill="#2f2e3f"/>
    <path id="Path_193" data-name="Path 193" d="M5976.506,1235.326c61.944-157.64,117.877-215.578,286.191-325.611s264.009-53.077,386.56-114.534,102.065-125.3,101.542-127.72c0,0,142.733.016,142.729,0,16.807,61.457,43.649,140.291-56.493,242.255s-249.172,61.833-368.221,177.765-124.883,285.96-124.883,285.96,4.429,293.017-166.616,345.138c-.049.119-201.17.429-201.215.4S5976.5,1235.329,5976.506,1235.326Z" transform="translate(-5976 1080)" fill="#8a2be2"/>
    <path id="Path_194" data-name="Path 194" d="M5976.506,1250.393c71.56-181.442,117.877-221.311,286.191-334.269s264.009-54.488,386.56-117.58,99.7-128.973,99.181-131.461c0,0,145.005.016,145,0,16.807,63.092,43.737,144.366-56.4,249.041s-249.172,63.478-368.221,182.492-124.883,293.565-124.883,293.565l-146.021,325.9H5895.8S5904.947,1431.835,5976.506,1250.393Z" transform="translate(-5847 1080)" fill="#a25de2"/>
    <path id="Path_195" data-name="Path 195" d="M5976.506,1250.394c71.56-181.443,117.877-221.312,286.191-334.271s264.009-54.489,386.56-117.581,100.9-129.352,100.372-131.839c0,0,143.112.016,143.108,0,16.807,63.092,44.439,144.744-55.7,249.42s-249.172,63.478-368.221,182.493S6272.951,1289.822,6262.7,1450.34s0,268.488,0,268.871c-.084.06-358.574,0-358.574,0S5904.947,1431.837,5976.506,1250.394Z" transform="translate(-5726 1080)" fill="#b181dd"/>
    <path id="Path_142" data-name="Path 142" d="M8301.224-1309.753c1833.276-8.718,1838.286,84.819,1920-323.267-.042,0,0,351.894,0,351.894l-1920-.154Z" transform="translate(-8301.224 4083.126)" fill="url(#linear-gradient)"/>
    <circle id="Ellipse_41" data-name="Ellipse 41" cx="177" cy="177" r="177" transform="translate(197 2053)" fill="#826afa"/>
    <path id="Path_214" data-name="Path 214" d="M177,0V354S-1.583,354.4,0,177,177,0,177,0Z" transform="translate(375.077 1980.267) rotate(45)" fill="#9a86fc"/>
    <path id="Subtraction_50" data-name="Subtraction 50" d="M-5756,1560a221.622,221.622,0,0,1-44.337-4.47,218.9,218.9,0,0,1-41.3-12.819,220.033,220.033,0,0,1-37.37-20.284,221.6,221.6,0,0,1-32.56-26.864,221.586,221.586,0,0,1-26.864-32.56,220.027,220.027,0,0,1-20.284-37.37,218.889,218.889,0,0,1-12.819-41.3A221.632,221.632,0,0,1-5976,1340a221.626,221.626,0,0,1,4.47-44.337,218.882,218.882,0,0,1,12.819-41.3,220,220,0,0,1,20.284-37.37,221.615,221.615,0,0,1,26.864-32.559,221.606,221.606,0,0,1,32.56-26.864,220.012,220.012,0,0,1,37.37-20.284,218.912,218.912,0,0,1,41.3-12.819A221.622,221.622,0,0,1-5756,1120a221.622,221.622,0,0,1,44.337,4.47,218.9,218.9,0,0,1,41.3,12.819,220.018,220.018,0,0,1,37.37,20.284,221.622,221.622,0,0,1,32.56,26.864A221.639,221.639,0,0,1-5573.572,1217a220.045,220.045,0,0,1,20.284,37.37,218.882,218.882,0,0,1,12.819,41.3A221.629,221.629,0,0,1-5536,1340a221.636,221.636,0,0,1-4.47,44.338,218.889,218.889,0,0,1-12.819,41.3,220.037,220.037,0,0,1-20.284,37.37,221.641,221.641,0,0,1-26.864,32.56,221.592,221.592,0,0,1-32.56,26.864,220.011,220.011,0,0,1-37.37,20.284,218.882,218.882,0,0,1-41.3,12.819A221.622,221.622,0,0,1-5756,1560Zm0-426c-113.589,0-206,92.411-206,206s92.412,206,206,206,206-92.411,206-206S-5642.411,1134-5756,1134Z" transform="translate(6130 890)" fill="url(#linear-gradient-2)"/>
    <g id="fevicon" transform="translate(263.483 2098.044)">
      <g id="Me" transform="translate(8 -5)">
        <g transform="matrix(1, 0, 0, 1, -271.48, -371.04)" filter="url(#Body)">
          <path id="Body-2" data-name="Body" d="M58.306,0h5.206a65.8,65.8,0,0,1,65.8,65.8v0a0,0,0,0,1,0,0H0a0,0,0,0,1,0,0v-7.5A58.306,58.306,0,0,1,58.306,0Z" transform="translate(329.58 579.07)" fill="#d87e4b"/>
        </g>
        <path id="Neck" d="M0,0H45.6a0,0,0,0,1,0,0V16.451A20.615,20.615,0,0,1,24.988,37.066h0A24.988,24.988,0,0,1,0,12.078V0A0,0,0,0,1,0,0Z" transform="translate(93.706 193.868)" fill="#e7b598"/>
        <path id="Face" d="M17.981,0H146.6a0,0,0,0,1,0,0V55.507A72.559,72.559,0,0,1,74.04,128.065h0A74.04,74.04,0,0,1,0,54.026V17.981A17.981,17.981,0,0,1,17.981,0Z" transform="translate(27.071 76.214)" fill="#f3d1b0"/>
        <g id="Hair">
          <path id="Rectangle_12" data-name="Rectangle 12" d="M0,0H132.438a36.025,36.025,0,0,1,36.025,36.025v7.7a0,0,0,0,1,0,0H43.73A43.73,43.73,0,0,1,0,0V0A0,0,0,0,1,0,0Z" transform="translate(5.206)" fill="#59534b"/>
          <path id="Rectangle_13" data-name="Rectangle 13" d="M0,0H172.146a15.267,15.267,0,0,1,15.267,15.267V43.73a0,0,0,0,1,0,0H43.73A43.73,43.73,0,0,1,0,0V0A0,0,0,0,1,0,0Z" transform="translate(0 35.4)" fill="#6b6359"/>
          <path id="Rectangle_18" data-name="Rectangle 18" d="M0,0H0A15.826,15.826,0,0,1,15.826,15.826v37.9a0,0,0,0,1,0,0H0a0,0,0,0,1,0,0V0A0,0,0,0,1,0,0Z" transform="translate(173.669 35.4)" fill="#6b6359"/>
        </g>
        <path id="Ear" d="M0,0H8.85A22.594,22.594,0,0,1,31.444,22.594v0A22.594,22.594,0,0,1,8.85,45.187H0a0,0,0,0,1,0,0V0A0,0,0,0,1,0,0Z" transform="translate(173.669 89.125)" fill="#e7b598"/>
        <path id="Smile" d="M3195.45,2126.7h66.442s5.1,32.214-30.969,32.658S3195.45,2126.7,3195.45,2126.7Z" transform="translate(-3133.718 -1970.999)" fill="#fff"/>
        <g id="Eyes" transform="translate(58.098 107.242)">
          <circle id="Ellipse_10" data-name="Ellipse 10" cx="6.559" cy="6.559" r="6.559" fill="#6b6359"/>
          <circle id="Ellipse_11" data-name="Ellipse 11" cx="6.559" cy="6.559" r="6.559" transform="translate(51.643)" fill="#6b6359"/>
        </g>
      </g>
      <g id="Glasses2" transform="translate(42.057 88.049)">
        <path id="Subtraction_45" data-name="Subtraction 45" d="M27.8,48.989a23.681,23.681,0,0,1-13.985-4.225,27.964,27.964,0,0,1-8.484-10.12A52.216,52.216,0,0,1,0,12.048C0,7.054,2.841,3.734,8.687,1.9,14,.23,21.011,0,27.8,0S41.6.23,46.908,1.9c5.845,1.836,8.687,5.155,8.687,10.149a52.216,52.216,0,0,1-5.328,22.6,27.975,27.975,0,0,1-8.484,10.12A23.684,23.684,0,0,1,27.8,48.989Zm0-46.453c-12.056,0-24.919.835-24.919,10.8A46.8,46.8,0,0,0,7.655,33.593c4.443,8.533,11.22,12.86,20.142,12.86s15.7-4.327,20.142-12.86a46.8,46.8,0,0,0,4.777-20.257C52.717,3.371,39.853,2.536,27.8,2.536Z" transform="translate(0 0)" fill="#707070"/>
        <path id="Subtraction_44" data-name="Subtraction 44" d="M27.8,48.989a23.681,23.681,0,0,1-13.985-4.225,27.964,27.964,0,0,1-8.484-10.12A52.216,52.216,0,0,1,0,12.048C0,7.054,2.841,3.734,8.687,1.9,14,.23,21.011,0,27.8,0S41.6.23,46.908,1.9c5.845,1.836,8.687,5.155,8.687,10.149a52.216,52.216,0,0,1-5.328,22.6,27.975,27.975,0,0,1-8.484,10.12A23.684,23.684,0,0,1,27.8,48.989Zm0-46.453c-12.056,0-24.919.835-24.919,10.8A46.8,46.8,0,0,0,7.655,33.593c4.443,8.533,11.22,12.86,20.142,12.86s15.7-4.327,20.142-12.86a46.8,46.8,0,0,0,4.777-20.257C52.717,3.371,39.853,2.536,27.8,2.536Z" transform="translate(62.544 0)" fill="#707070"/>
        <line id="Line_15" data-name="Line 15" x2="8.687" transform="translate(54.726 11.179)" fill="none" stroke="#707070" stroke-linecap="round" stroke-width="2"/>
      </g>
    </g>
  </g>
</svg>
