<svg xmlns="http://www.w3.org/2000/svg" xmlns:xlink="http://www.w3.org/1999/xlink" width="768" height="1024" viewBox="0 0 768 1024">
  <defs>
    <style>
      .cls-1 {
        clip-path: url(#clip-tab-drawing-1);
      }

      .cls-2 {
        fill: url(#linear-gradient);
      }

      .cls-3 {
        fill: #464646;
      }

      .cls-4 {
        fill: #3d3d3d;
      }

      .cls-5 {
        fill: #303030;
      }

      .cls-6 {
        fill: url(#radial-gradient);
      }

      .cls-7 {
        opacity: 0.67;
        fill: url(#linear-gradient-2);
      }

      .cls-8, .cls-9 {
        fill: none;
      }

      .cls-9 {
        stroke: #303030;
        stroke-linecap: round;
      }

      .cls-10 {
        fill: #fff;
      }
    </style>
    <linearGradient id="linear-gradient" x1="0.5" x2="0.5" y2="0.709" gradientUnits="objectBoundingBox">
      <stop offset="0" stop-color="#060510"/>
      <stop offset="1" stop-color="#461d92"/>
    </linearGradient>
    <radialGradient id="radial-gradient" cx="0.5" cy="0.5" r="0.539" gradientTransform="translate(-0.024 0.005) scale(1.047 0.989)" gradientUnits="objectBoundingBox">
      <stop offset="0" stop-color="#fff"/>
      <stop offset="1" stop-color="#3abeff"/>
    </radialGradient>
    <linearGradient id="linear-gradient-2" x1="0.255" y1="0.081" x2="0.795" y2="0.898" gradientUnits="objectBoundingBox">
      <stop offset="0" stop-color="#fff"/>
      <stop offset="1" stop-color="#8d46f9"/>
    </linearGradient>
    <clipPath id="clip-tab-drawing-1">
      <rect width="768" height="1024"/>
    </clipPath>
  </defs>
  <g id="tab-drawing-1" class="cls-1">
    <rect class="cls-10" width="768" height="1024"/>
    <g id="Group_36" data-name="Group 36" transform="translate(0)">
      <rect id="Rectangle_42" data-name="Rectangle 42" class="cls-2" width="768" height="1024"/>
      <path id="base3" class="cls-3" d="M3564.338,351.895c225.092-79.665,257.359,29.047,449.1,22.037s165.251-61.674,317.871-50.076c.015-.029.078,337.608-.082,337.819.03-.13-766.892.394-766.892.394Z" transform="translate(-3564.337 360.329)"/>
      <path id="base3-2" data-name="base3" class="cls-4" d="M3564.338,342.8c225.4-71.884,275,29.791,466.743,23.456s175.432-42.729,300.157-33.734c.016-.026.161,299.435,0,299.626.031-.118-766.9.357-766.9.357Z" transform="translate(-3564.338 390.498)"/>
      <path id="base3-3" data-name="base3" class="cls-5" d="M3564.337,347.542c174.23-73.557,272.086,31.141,463.83,25.377s173.43-70.667,303.144-48.43c.014-.024.08,277.57-.082,277.743.031-.107-766.892.324-766.892.324Z" transform="translate(-3564.337 420.443)"/>
      <path id="Path_130" data-name="Path 130" class="cls-3" d="M18.922,9.564c10.615,0,17.848,14.944,17.848,30.255S29.538,57.746,18.922,57.746s-20.01-18-20.01-33.315S8.307,9.564,18.922,9.564Z" transform="translate(48.124 770.582)"/>
      <path id="Path_202" data-name="Path 202" class="cls-3" d="M30.047,26.711c8.424,13.656-9.072,15.228-12.981,15.364S-1.088,44.712-1.088,26.711,21.622,13.055,30.047,26.711Z" transform="translate(496.703 823.293)"/>
      <path id="Path_203" data-name="Path 203" class="cls-3" d="M38.027,39.934c0,15.819-7.473,18.521-18.441,18.521s-20.674-18.6-20.674-34.42S38.027,24.115,38.027,39.934Z" transform="translate(714.765 930.214)"/>
      <path id="Path_201" data-name="Path 201" class="cls-3" d="M18.021.053c9.677.168,5.038,9.882,5.27,23.628s5.137,19.8-4.54,19.629S.236,26.829,0,13.083,8.344-.115,18.021.053Z" transform="matrix(0.914, 0.407, -0.407, 0.914, 29.889, 887.904)"/>
      <path id="Path_216" data-name="Path 216" class="cls-3" d="M9.8,0c6.174.122,10.448-.49,10.616,7.821s-2.232,21.115-8.406,20.994-11.836-10-12-18.312S3.625-.117,9.8,0Z" transform="translate(453.341 928.49) rotate(60)"/>
      <path id="Path_200" data-name="Path 200" class="cls-3" d="M20.032,9.564C30.64,9.564,37.867,24.5,37.867,39.8S30.64,57.658,20.032,57.658,7.144,51.434,7.144,36.134,9.425,9.564,20.032,9.564Z" transform="translate(202.563 818.949)"/>
      <path id="Path_215" data-name="Path 215" class="cls-3" d="M4,0C7.432.077,12.6,3.028,12.7,7.675S7.75,14.683,4.32,14.608.111,12.625.01,7.979.572-.074,4,0Z" transform="matrix(0.809, 0.588, -0.588, 0.809, 235.054, 937.967)"/>
      <path id="Path_206" data-name="Path 206" class="cls-3" d="M10.176,0c8.7.187,14.85,10.877,15.086,21.7S19.613,34.211,10.918,34.024.257,29.394.021,18.571,1.48-.184,10.176,0Z" transform="matrix(0.574, 0.819, -0.819, 0.574, 719.469, 749.764)"/>
      <path id="Path_217" data-name="Path 217" class="cls-3" d="M6.639,0c5.677.122,10.91,12.853,10.91,12.853S12.8,22.337,7.124,22.215.13,17.679.009,12.125.962-.12,6.639,0Z" transform="matrix(0.574, 0.819, -0.819, 0.574, 585.081, 968.962)"/>
      <path id="Path_204" data-name="Path 204" class="cls-3" d="M12.294,9.564c7.1,0,11.936,9.994,11.936,20.233S19.393,41.786,12.294,41.786-1.088,29.745-1.088,19.506,5.195,9.564,12.294,9.564Z" transform="translate(72.799 963.447)"/>
      <path id="Path_126" data-name="Path 126" class="cls-3" d="M8.633,9.564c5.157,0,8.67,7.26,8.67,14.7S13.79,41.673,8.633,41.673s-9.721-17.45-9.721-24.887S3.476,9.564,8.633,9.564Z" transform="translate(677.581 862.316)"/>
      <path id="Path_207" data-name="Path 207" class="cls-3" d="M6.077,9.563c3.8,0,6.391,5.351,6.391,10.833S9.878,33.231,6.077,33.231-1.088,20.369-1.088,14.887,2.276,9.563,6.077,9.563Z" transform="translate(319.164 797.296)"/>
      <path id="Path_205" data-name="Path 205" class="cls-3" d="M6.077,22.581a6.19,6.19,0,0,0,6.391-5.959c0-3.016-2.59-7.06-6.391-7.06s-7.165,7.075-7.165,10.09S2.276,22.581,6.077,22.581Z" transform="translate(376.776 871.861)"/>
      <g id="moon" transform="translate(192.239 415.696)">
        <ellipse id="Ellipse_16" data-name="Ellipse 16" class="cls-6" cx="91.829" cy="96.161" rx="91.829" ry="96.161"/>
        <ellipse id="Ellipse_17" data-name="Ellipse 17" class="cls-7" cx="91.829" cy="96.161" rx="91.829" ry="96.161"/>
      </g>
      <g id="bench" transform="translate(354.035 690.37)">
        <path id="Path_116" data-name="Path 116" class="cls-5" d="M-.487-.5l151.1.036" transform="translate(18.491 55.061)"/>
        <line id="Line_18" data-name="Line 18" class="cls-8" y1="54.563" x2="1.042" transform="translate(169.101)"/>
        <line id="Line_19" data-name="Line 19" class="cls-8" y1="54.563" x2="0.521" transform="translate(17.997)"/>
        <rect id="Rectangle_30" data-name="Rectangle 30" class="cls-5" width="151.105" height="10.913" transform="translate(17.997 30.009)"/>
        <rect id="Rectangle_31" data-name="Rectangle 31" class="cls-5" width="151.105" height="10.913" transform="translate(17.997 16.369)"/>
        <rect id="Rectangle_32" data-name="Rectangle 32" class="cls-5" width="151.105" height="10.913" transform="translate(17.997 43.65)"/>
        <path id="Path_117" data-name="Path 117" class="cls-5" d="M-2.163,0H149.371l6.478,6.275s15.111,6.275,11.533,6.275H-19.208c-3.578,0,10.567-6.275,10.567-6.275Z" transform="translate(19.788 57.291)"/>
        <rect id="Rectangle_36" data-name="Rectangle 36" class="cls-5" width="7.295" height="30.01" transform="translate(17.997 69.84)"/>
        <rect id="Rectangle_37" data-name="Rectangle 37" class="cls-5" width="7.295" height="30.01" transform="translate(162.327 69.84)"/>
      </g>
      <path id="tree" class="cls-5" d="M4452.065,296.965c3.891,46.02,18.3,94.736,18.3,94.736h40.953s-20.433-68.663-24.166-98.809,40.391-56.164,51.674-60.1,25.52,0,25.52,0,30.374,6.034,35.493,6.37c2.091.137-19.14-6.37-19.14-6.37s20.934-23,20.92-22.994c.021.018-23.073,19.98-23.073,19.98s-27.175-.153-25.284-6.16c1.523-4.841,16.121-16.006,16.122-16s-32.784,20.043-32.784,20.043-48.663,21.169-53.78,26.37-7.549-24.12-4.287-46.413,50.534-73.733,68.252-87.877,60.174-24.85,60.174-24.85l-45.342,11.094L4592.684,61.8s-24.484,37.762-53.854,55.155c-4.813,2.85,0-48.576,0-48.576s-7.235,32.448-5.562,48.576-46.155,49.663-48.462,52.1c-7.3,7.7-24.322.788-6.268-40.961,9.893-22.878,24.208-47.683,32.784-65.656,2.5-5.246,2.845-13.049,4-17.449a91.142,91.142,0,0,1,3.86-11.725,35.783,35.783,0,0,0-5.459,10.41c-1.857,5.435-2.518,13.234-6.163,18.764-5.026,7.626-10.26,22.217-15.833,15.4-2.768-6.049-15.168-24.549-28.46-41.094a192.138,192.138,0,0,0-26.83-27.307l18.375,26.072-17.166-2.244s18.169,2.814,29.7,17.19,23.633,34.006,22.255,38.725c-2.459,8.415-20.84,48.63-26.338,37.483s-70.228-58.28-70.228-58.28,63.811,48.786,63.5,74.729,11.049,44.651,4.011,39.1-55.762-10.005-70.137-26.778-23.746-20.8-23.746-20.8,13.889,10.322,19.564,20.8-25.682-5.356-40.617-7.389c-15.854-7.675-18.818-14.935-18.818-14.935s5.389,10.389,11.707,13.489-25.5-1.21-25.5-1.21,6.777,3.047,29.178,6.8,58.8,19.314,58.8,19.314l-27.633,3.4h33.1l29.993,13.7s14.466,6.767,18.375,19.024S4448.174,250.945,4452.065,296.965Z" transform="translate(-4300.218 378.77)"/>
      <g id="Small_plant" data-name="Small plant" transform="translate(293.23 653.045) rotate(13)">
        <path id="Path_96" data-name="Path 96" class="cls-9" d="M6.765,0C5.1,5.491-.1,3.017,0,12.769s6.98,9.157,7.058,17.047S.242,37.091.314,44.327s6.949,6,7.033,14.435-6.8,9.07-6.7,19.3S5.921,88.832,7.7,94.236.949,108.529.949,108.529" transform="translate(17.486 12.302)"/>
        <line id="Line_6" data-name="Line 6" class="cls-9" y1="9.457" x2="6.531" transform="translate(24.407 94.968)"/>
        <line id="Line_9" data-name="Line 9" class="cls-9" x1="6.72" y1="9.593" transform="translate(11.425 80.719)"/>
        <line id="Line_10" data-name="Line 10" class="cls-9" x1="6.72" y1="9.593" transform="translate(11.101 47.905)"/>
        <line id="Line_11" data-name="Line 11" class="cls-9" x1="6.72" y1="9.593" transform="translate(10.776 15.091)"/>
        <line id="Line_7" data-name="Line 7" class="cls-9" y1="9.457" x2="6.531" transform="translate(24.65 64.16)"/>
        <line id="Line_8" data-name="Line 8" class="cls-9" y1="9.457" x2="6.531" transform="translate(24.554 31.396)"/>
        <g id="Group_7" data-name="Group 7" transform="matrix(0.799, -0.602, 0.602, 0.799, 0.182, 41.508)">
          <path id="Path_99" data-name="Path 99" class="cls-5" d="M.251,0C10.357,14.407,0,14.9,0,14.9Z" transform="translate(4.522 0)"/>
          <path id="Path_100" data-name="Path 100" class="cls-5" d="M4.776,0c-10.6,14.767-.251,14.9-.251,14.9Z" transform="translate(0 0)"/>
        </g>
        <g id="Group_8" data-name="Group 8" transform="matrix(0.799, -0.602, 0.602, 0.799, 0, 9.267)">
          <path id="Path_99-2" data-name="Path 99" class="cls-5" d="M.251,0C10.357,14.407,0,14.9,0,14.9Z" transform="translate(4.522 0)"/>
          <path id="Path_100-2" data-name="Path 100" class="cls-5" d="M4.776,0c-10.6,14.767-.251,14.9-.251,14.9Z" transform="translate(0 0)"/>
        </g>
        <g id="Group_9" data-name="Group 9" transform="matrix(0.799, -0.602, 0.602, 0.799, 0.507, 74.322)">
          <path id="Path_99-3" data-name="Path 99" class="cls-5" d="M.251,0C10.357,14.407,0,14.9,0,14.9Z" transform="translate(4.522 0)"/>
          <path id="Path_100-3" data-name="Path 100" class="cls-5" d="M4.776,0c-10.6,14.767-.251,14.9-.251,14.9Z" transform="translate(0 0)"/>
        </g>
        <g id="Group_10" data-name="Group 10" transform="matrix(-0.799, -0.602, 0.602, -0.799, 34.451, 98.496)">
          <path id="Path_99-4" data-name="Path 99" class="cls-5" d="M.333,14.619C10.563.55,0,0,0,0Z" transform="translate(4.588 0)"/>
          <path id="Path_100-4" data-name="Path 100" class="cls-5" d="M4.924,14.62C-5.958.072,4.591,0,4.591,0Z" transform="translate(0 0)"/>
        </g>
        <g id="Group_11" data-name="Group 11" transform="matrix(-0.799, -0.602, 0.602, -0.799, 34.157, 68.777)">
          <path id="Path_99-5" data-name="Path 99" class="cls-5" d="M.333,14.619C10.563.55,0,0,0,0Z" transform="translate(4.588 0)"/>
          <path id="Path_100-5" data-name="Path 100" class="cls-5" d="M4.924,14.62C-5.958.072,4.591,0,4.591,0Z" transform="translate(0 0)"/>
        </g>
        <g id="Group_12" data-name="Group 12" transform="matrix(-0.799, -0.602, 0.602, -0.799, 33.833, 36.059)">
          <path id="Path_99-6" data-name="Path 99" class="cls-5" d="M.333,14.619C10.563.55,0,0,0,0Z" transform="translate(4.588 0)"/>
          <path id="Path_100-6" data-name="Path 100" class="cls-5" d="M4.924,14.62C-5.958.072,4.591,0,4.591,0Z" transform="translate(0 0)"/>
        </g>
        <g id="Group_14" data-name="Group 14" transform="matrix(-0.799, -0.602, 0.602, -0.799, 27.16, 17.323)">
          <path id="Path_99-7" data-name="Path 99" class="cls-5" d="M.333,14.619C10.563.55,0,0,0,0Z" transform="translate(4.588 0)"/>
          <path id="Path_100-7" data-name="Path 100" class="cls-5" d="M4.924,14.62C-5.958.072,4.591,0,4.591,0Z" transform="translate(0 0)"/>
        </g>
      </g>
      <g id="Small_plant-2" data-name="Small plant" transform="translate(68.739 659.718) rotate(-31)">
        <path id="Path_96-2" data-name="Path 96" class="cls-9" d="M9.125,0C7.275,5.491,2.1,3.2,1.909,12.859S8.688,21.714,8.53,29.527,1.424,36.945,1.28,44.111s6.842,5.73,6.674,14.081S.811,67.388.607,77.518,5.614,88.025,7.246,93.323,0,107.691,0,107.691" transform="translate(16.707 12.487)"/>
        <line id="Line_6-2" data-name="Line 6" class="cls-9" y1="9.57" x2="6.882" transform="translate(23.232 94.17)"/>
        <line id="Line_9-2" data-name="Line 9" class="cls-9" x1="6.503" y1="9.295" transform="translate(10.825 80.659)"/>
        <line id="Line_10-2" data-name="Line 10" class="cls-9" x1="6.503" y1="9.295" transform="translate(11.479 48.163)"/>
        <line id="Line_11-2" data-name="Line 11" class="cls-9" x1="6.503" y1="9.295" transform="translate(12.133 15.667)"/>
        <line id="Line_7-2" data-name="Line 7" class="cls-9" y1="9.57" x2="6.882" transform="translate(24.4 63.644)"/>
        <line id="Line_8-2" data-name="Line 8" class="cls-9" y1="9.57" x2="6.882" transform="translate(25.284 31.19)"/>
        <g id="Group_7-2" data-name="Group 7" transform="matrix(0.799, -0.602, 0.602, 0.799, 0.654, 42.157)">
          <path id="Path_99-8" data-name="Path 99" class="cls-5" d="M.235,0C10.693,13.959,0,14.435,0,14.435Z" transform="translate(4.676 0)"/>
          <path id="Path_100-8" data-name="Path 100" class="cls-5" d="M4.914,0C-6,14.3,4.679,14.435,4.679,14.435Z" transform="translate(0 0)"/>
        </g>
        <g id="Group_8-2" data-name="Group 8" transform="matrix(0.799, -0.602, 0.602, 0.799, 1.435, 10.224)">
          <path id="Path_99-9" data-name="Path 99" class="cls-5" d="M.235,0C10.693,13.96,0,14.435,0,14.435Z" transform="translate(4.676 0)"/>
          <path id="Path_100-9" data-name="Path 100" class="cls-5" d="M4.914,0C-6,14.3,4.679,14.435,4.679,14.435Z" transform="translate(0 0)"/>
        </g>
        <g id="Group_9-2" data-name="Group 9" transform="matrix(0.799, -0.602, 0.602, 0.799, 0, 74.653)">
          <path id="Path_99-10" data-name="Path 99" class="cls-5" d="M.235,0C10.693,13.959,0,14.435,0,14.435Z" transform="translate(4.676 0)"/>
          <path id="Path_100-10" data-name="Path 100" class="cls-5" d="M4.914,0C-6,14.3,4.679,14.435,4.679,14.435Z" transform="translate(0 0)"/>
        </g>
        <g id="Group_10-2" data-name="Group 10" transform="matrix(-0.799, -0.602, 0.602, -0.799, 33.567, 97.668)">
          <path id="Path_99-11" data-name="Path 99" class="cls-5" d="M.07,15.009C10.279.37,0,0,0,0Z" transform="translate(4.543 0)"/>
          <path id="Path_100-11" data-name="Path 100" class="cls-5" d="M4.617,15.009C-5.729.269,4.546,0,4.546,0Z" transform="translate(0 0)"/>
        </g>
        <g id="Group_11-2" data-name="Group 11" transform="matrix(-0.799, -0.602, 0.602, -0.799, 34.159, 68.238)">
          <path id="Path_99-12" data-name="Path 99" class="cls-5" d="M.07,15.009C10.279.37,0,0,0,0Z" transform="translate(4.543 0)"/>
          <path id="Path_100-12" data-name="Path 100" class="cls-5" d="M4.617,15.009C-5.729.269,4.546,0,4.546,0Z" transform="translate(0 0)"/>
        </g>
        <g id="Group_12-2" data-name="Group 12" transform="matrix(-0.799, -0.602, 0.602, -0.799, 34.811, 35.836)">
          <path id="Path_99-13" data-name="Path 99" class="cls-5" d="M.07,15.009C10.279.37,0,0,0,0Z" transform="translate(4.543 0)"/>
          <path id="Path_100-13" data-name="Path 100" class="cls-5" d="M4.617,15.009C-5.729.269,4.546,0,4.546,0Z" transform="translate(0 0)"/>
        </g>
        <g id="Group_14-2" data-name="Group 14" transform="matrix(-0.799, -0.602, 0.602, -0.799, 28.63, 17.483)">
          <path id="Path_99-14" data-name="Path 99" class="cls-5" d="M.07,15.009C10.279.37,0,0,0,0Z" transform="translate(4.543 0)"/>
          <path id="Path_100-14" data-name="Path 100" class="cls-5" d="M4.617,15.009C-5.729.269,4.546,0,4.546,0Z" transform="translate(0 0)"/>
        </g>
      </g>
      <g id="Group_16" data-name="Group 16" transform="translate(102.509 445.554) rotate(131)">
        <path id="Path_99-15" data-name="Path 99" class="cls-5" d="M0,20.869C15.512.1.478,0,.478,0Z" transform="translate(6.353 0)"/>
        <path id="Path_100-15" data-name="Path 100" class="cls-5" d="M6.357,20.869C-8.22.786,6.835,0,6.835,0Z" transform="translate(0 0)"/>
      </g>
      <g id="Group_17" data-name="Group 17" transform="translate(74.096 510.206) rotate(131)">
        <path id="Path_99-16" data-name="Path 99" class="cls-5" d="M0,20.869C15.512.1.478,0,.478,0Z" transform="translate(6.353 0)"/>
        <path id="Path_100-16" data-name="Path 100" class="cls-5" d="M6.357,20.869C-8.22.786,6.835,0,6.835,0Z" transform="translate(0 0)"/>
      </g>
      <g id="Group_18" data-name="Group 18" transform="translate(84.6 526.478) rotate(-146)">
        <path id="Path_99-17" data-name="Path 99" class="cls-5" d="M.447,21.117C14.877.77,0,0,0,0Z" transform="translate(6.469 0)"/>
        <path id="Path_100-17" data-name="Path 100" class="cls-5" d="M6.92,21.117C-8.385.129,6.473,0,6.473,0Z" transform="translate(0 0)"/>
      </g>
      <g id="Group_19" data-name="Group 19" transform="matrix(-0.883, -0.469, 0.469, -0.883, 143.551, 392.432)">
        <path id="Path_99-18" data-name="Path 99" class="cls-5" d="M.4,21.206C14.812.738,0,0,0,0Z" transform="translate(6.454 0)"/>
        <path id="Path_100-18" data-name="Path 100" class="cls-5" d="M6.859,21.206C-8.336.165,6.459,0,6.459,0Z" transform="translate(0 0)"/>
      </g>
      <g id="Group_21" data-name="Group 21" transform="translate(224.062 415.232) rotate(-155)">
        <path id="Path_99-19" data-name="Path 99" class="cls-5" d="M.369,21.246C14.783.717,0,0,0,0Z" transform="translate(6.451 0)"/>
        <path id="Path_100-19" data-name="Path 100" class="cls-5" d="M6.824,21.246C-8.312.187,6.455,0,6.455,0Z" transform="translate(0 0)"/>
      </g>
      <g id="Group_24" data-name="Group 24" transform="translate(288.889 456.023) rotate(-155)">
        <path id="Path_99-20" data-name="Path 99" class="cls-5" d="M.37,21.246C14.783.717,0,0,0,0Z" transform="translate(6.451 0)"/>
        <path id="Path_100-20" data-name="Path 100" class="cls-5" d="M6.824,21.246C-8.312.187,6.455,0,6.455,0Z" transform="translate(0 0)"/>
      </g>
      <g id="Group_25" data-name="Group 25" transform="matrix(-0.819, 0.574, -0.574, -0.819, 274.162, 466.936)">
        <path id="Path_99-21" data-name="Path 99" class="cls-5" d="M0,21.1C15.322.124.453,0,.453,0Z" transform="translate(6.296 0)"/>
        <path id="Path_100-21" data-name="Path 100" class="cls-5" d="M6.3,21.1C-8.135.774,6.753,0,6.753,0Z" transform="translate(0 0)"/>
      </g>
      <g id="Group_22" data-name="Group 22" transform="translate(415.948 669.867) rotate(-155)">
        <path id="Path_99-22" data-name="Path 99" class="cls-5" d="M.369,21.246C14.783.717,0,0,0,0Z" transform="translate(6.451 0)"/>
        <path id="Path_100-22" data-name="Path 100" class="cls-5" d="M6.824,21.246C-8.312.187,6.455,0,6.455,0Z" transform="translate(0 0)"/>
      </g>
      <g id="Group_23" data-name="Group 23" transform="translate(304.582 522.333) rotate(31)">
        <path id="Path_99-23" data-name="Path 99" class="cls-5" d="M.426,21.162C14.844.755,0,0,0,0Z" transform="translate(6.46 0)"/>
        <path id="Path_100-23" data-name="Path 100" class="cls-5" d="M6.891,21.163C-8.361.145,6.465,0,6.465,0Z" transform="translate(0 0)"/>
      </g>
      <g id="Group_32" data-name="Group 32" transform="translate(676.22 570.345) rotate(31)">
        <path id="Path_99-24" data-name="Path 99" class="cls-5" d="M.426,21.162C14.844.755,0,0,0,0Z" transform="translate(6.46 0)"/>
        <path id="Path_100-24" data-name="Path 100" class="cls-5" d="M6.891,21.162C-8.361.145,6.465,0,6.465,0Z" transform="translate(0 0)"/>
      </g>
      <g id="Group_20" data-name="Group 20" transform="matrix(0.469, 0.883, -0.883, 0.469, 134.692, 384.212)">
        <path id="Path_99-25" data-name="Path 99" class="cls-5" d="M.4,20.666C15.2.726,0,0,0,0Z" transform="translate(6.626 0)"/>
        <path id="Path_100-25" data-name="Path 100" class="cls-5" d="M7.03,20.666C-8.551.153,6.63,0,6.63,0Z" transform="translate(0 0)"/>
      </g>
    </g>
  </g>
</svg>
