<svg xmlns="http://www.w3.org/2000/svg" xmlns:xlink="http://www.w3.org/1999/xlink" width="768" height="1024" viewBox="0 0 768 1024">
  <defs>
    <style>
      .cls-1 {
        clip-path: url(#clip-tab-about);
      }

      .cls-2 {
        fill: #2f2e3f;
      }

      .cls-3 {
        fill: url(#linear-gradient);
      }

      .cls-4 {
        fill: #9a86fc;
      }

      .cls-5 {
        fill: #d87e4b;
      }

      .cls-6 {
        fill: #e7b598;
      }

      .cls-7 {
        fill: #f3d1b0;
      }

      .cls-8 {
        fill: #59534b;
      }

      .cls-9 {
        fill: #6b6359;
      }

      .cls-10 {
        fill: #fff;
      }

      .cls-11 {
        fill: #707070;
      }

      .cls-12 {
        fill: none;
        stroke: #707070;
        stroke-linecap: round;
        stroke-width: 2px;
      }

      .cls-13 {
        fill: url(#linear-gradient-2);
      }

      .cls-14 {
        filter: url(#Body);
      }
    </style>
    <linearGradient id="linear-gradient" x1="0.5" x2="0.5" y2="1" gradientUnits="objectBoundingBox">
      <stop offset="0" stop-color="#ff3243"/>
      <stop offset="1" stop-color="#f7b302"/>
    </linearGradient>
    <filter id="Body" x="337.333" y="117.302" width="120.138" height="90.601" filterUnits="userSpaceOnUse">
      <feOffset dx="5" dy="10" input="SourceAlpha"/>
      <feGaussianBlur stdDeviation="10" result="blur"/>
      <feFlood flood-opacity="0.4"/>
      <feComposite operator="in" in2="blur"/>
      <feComposite in="SourceGraphic"/>
    </filter>
    <linearGradient id="linear-gradient-2" x1="1" y1="0.679" x2="0" y2="0.691" gradientUnits="objectBoundingBox">
      <stop offset="0" stop-color="#ff2a47"/>
      <stop offset="1" stop-color="#f7b500"/>
    </linearGradient>
    <clipPath id="clip-tab-about">
      <rect width="768" height="1024"/>
    </clipPath>
  </defs>
  <g id="tab-about" class="cls-1">
    <rect class="cls-10" width="768" height="1024"/>
    <g id="mob-About" transform="translate(0 -1435)">
      <g id="mob-AboutContent" transform="translate(0 1435)">
        <g id="mob-AboutContent-2" data-name="mob-AboutContent">
          <rect id="Rectangle_44" data-name="Rectangle 44" class="cls-2" width="768" height="1024"/>
          <path id="Subtraction_49" data-name="Subtraction 49" class="cls-3" d="M74.4,230.521,0,177.1V0H145.055V177.1L74.4,230.521ZM6.825,10.844V171.281l67.4,48.4,64-48.4V10.844Z" transform="translate(310.384 0.576)"/>
          <path id="Path_213" data-name="Path 213" class="cls-4" d="M0,0H113.027V144.949l-55.4,42.158L0,144.949Z" transform="translate(326.702 20.564)"/>
          <g id="fevicon" transform="translate(335.315 40.559)">
            <g id="Me" transform="translate(0 0)">
              <g class="cls-14" transform="matrix(1, 0, 0, 1, -335.31, -40.56)">
                <path id="Body-2" data-name="Body" class="cls-5" d="M27.115,0h2.421a30.6,30.6,0,0,1,30.6,30.6v0a0,0,0,0,1,0,0H0a0,0,0,0,1,0,0V27.115A27.115,27.115,0,0,1,27.115,0Z" transform="translate(362.33 137.3)"/>
              </g>
              <path id="Neck" class="cls-6" d="M0,0H21.208a0,0,0,0,1,0,0V7.65a9.587,9.587,0,0,1-9.587,9.587h0A11.621,11.621,0,0,1,0,5.617V0A0,0,0,0,1,0,0Z" transform="translate(43.578 90.158)"/>
              <path id="Face" class="cls-7" d="M8.362,0H68.175a0,0,0,0,1,0,0V25.813A33.743,33.743,0,0,1,34.432,59.556h0A34.432,34.432,0,0,1,0,25.125V8.362A8.362,8.362,0,0,1,8.362,0Z" transform="translate(12.589 35.443)"/>
              <g id="Hair">
                <path id="Rectangle_12" data-name="Rectangle 12" class="cls-8" d="M0,0H61.59A16.753,16.753,0,0,1,78.343,16.753v3.583a0,0,0,0,1,0,0H20.336A20.336,20.336,0,0,1,0,0V0A0,0,0,0,1,0,0Z" transform="translate(2.421)"/>
                <path id="Rectangle_13" data-name="Rectangle 13" class="cls-9" d="M0,0H80.056a7.1,7.1,0,0,1,7.1,7.1V20.336a0,0,0,0,1,0,0H20.336A20.336,20.336,0,0,1,0,0V0A0,0,0,0,1,0,0Z" transform="translate(0 16.463)"/>
                <path id="Rectangle_18" data-name="Rectangle 18" class="cls-9" d="M0,0H0A7.36,7.36,0,0,1,7.36,7.36V24.985a0,0,0,0,1,0,0H0a0,0,0,0,1,0,0V0A0,0,0,0,1,0,0Z" transform="translate(80.764 16.463)"/>
              </g>
              <path id="Ear" class="cls-6" d="M0,0H4.116A10.507,10.507,0,0,1,14.623,10.507v0A10.507,10.507,0,0,1,4.116,21.014H0a0,0,0,0,1,0,0V0A0,0,0,0,1,0,0Z" transform="translate(80.764 41.447)"/>
              <path id="Smile" class="cls-10" d="M3195.45,2126.7h30.9s2.37,14.981-14.4,15.188S3195.45,2126.7,3195.45,2126.7Z" transform="translate(-3166.742 -2054.29)"/>
              <g id="Eyes" transform="translate(27.018 49.872)">
                <circle id="Ellipse_10" data-name="Ellipse 10" class="cls-9" cx="3.05" cy="3.05" r="3.05"/>
                <circle id="Ellipse_11" data-name="Ellipse 11" class="cls-9" cx="3.05" cy="3.05" r="3.05" transform="translate(24.016)"/>
              </g>
            </g>
            <g id="Glasses2" transform="translate(15.838 43.272)">
              <path id="Subtraction_45" data-name="Subtraction 45" class="cls-11" d="M12.927,22.782a11.013,11.013,0,0,1-6.5-1.965,13,13,0,0,1-3.946-4.706A24.283,24.283,0,0,1,0,5.6C0,3.28,1.321,1.736,4.04.883A31.736,31.736,0,0,1,12.927,0a31.738,31.738,0,0,1,8.888.883c2.718.854,4.04,2.4,4.04,4.72a24.283,24.283,0,0,1-2.478,10.508,13.01,13.01,0,0,1-3.946,4.706A11.014,11.014,0,0,1,12.927,22.782Zm0-21.6C7.32,1.179,1.339,1.568,1.339,6.2a21.766,21.766,0,0,0,2.221,9.42c2.066,3.968,5.218,5.98,9.367,5.98s7.3-2.012,9.367-5.98A21.765,21.765,0,0,0,24.516,6.2C24.516,1.568,18.534,1.179,12.927,1.179Z" transform="translate(0 0)"/>
              <path id="Subtraction_44" data-name="Subtraction 44" class="cls-11" d="M12.927,22.782a11.013,11.013,0,0,1-6.5-1.965,13,13,0,0,1-3.946-4.706A24.283,24.283,0,0,1,0,5.6C0,3.28,1.321,1.736,4.04.883A31.736,31.736,0,0,1,12.927,0a31.738,31.738,0,0,1,8.888.883c2.718.854,4.04,2.4,4.04,4.72a24.283,24.283,0,0,1-2.478,10.508,13.01,13.01,0,0,1-3.946,4.706A11.014,11.014,0,0,1,12.927,22.782Zm0-21.6C7.32,1.179,1.339,1.568,1.339,6.2a21.766,21.766,0,0,0,2.221,9.42c2.066,3.968,5.218,5.98,9.367,5.98s7.3-2.012,9.367-5.98A21.765,21.765,0,0,0,24.516,6.2C24.516,1.568,18.534,1.179,12.927,1.179Z" transform="translate(29.086 0)"/>
              <line id="Line_15" data-name="Line 15" class="cls-12" x2="4.04" transform="translate(25.45 5.199)"/>
            </g>
          </g>
        </g>
      </g>
      <path id="Path_142" data-name="Path 142" class="cls-13" d="M8301.224-1475.087c733.308-4.26,735.313,41.439,768-157.933-.02,0,0,171.92,0,171.92l-768-.076Z" transform="translate(-8301.222 3920.101)"/>
    </g>
  </g>
</svg>
