<svg xmlns="http://www.w3.org/2000/svg" xmlns:xlink="http://www.w3.org/1999/xlink" width="375.27" height="667" viewBox="0 0 375.27 667">
  <defs>
    <style>
      .cls-1 {
        fill: #2f2e3f;
      }

      .cls-2 {
        fill: url(#linear-gradient);
      }

      .cls-3 {
        fill: #9a86fc;
      }

      .cls-4 {
        fill: #d87e4b;
      }

      .cls-5 {
        fill: #e7b598;
      }

      .cls-6 {
        fill: #f3d1b0;
      }

      .cls-7 {
        fill: #59534b;
      }

      .cls-8 {
        fill: #6b6359;
      }

      .cls-9 {
        fill: #fff;
      }

      .cls-10 {
        fill: #707070;
      }

      .cls-11 {
        fill: none;
        stroke: #707070;
        stroke-linecap: round;
        stroke-width: 2px;
      }

      .cls-12 {
        fill: url(#linear-gradient-2);
      }

      .cls-13 {
        filter: url(#Body);
      }
    </style>
    <linearGradient id="linear-gradient" x1="0.5" x2="0.5" y2="1" gradientUnits="objectBoundingBox">
      <stop offset="0" stop-color="#ff3243"/>
      <stop offset="1" stop-color="#f7b302"/>
    </linearGradient>
    <filter id="Body" x="148.559" y="69.521" width="99.21" height="79.952" filterUnits="userSpaceOnUse">
      <feOffset dx="5" dy="10" input="SourceAlpha"/>
      <feGaussianBlur stdDeviation="10" result="blur"/>
      <feFlood flood-opacity="0.4"/>
      <feComposite operator="in" in2="blur"/>
      <feComposite in="SourceGraphic"/>
    </filter>
    <linearGradient id="linear-gradient-2" x1="1" y1="0.679" x2="0" y2="0.691" gradientUnits="objectBoundingBox">
      <stop offset="0" stop-color="#ff2a47"/>
      <stop offset="1" stop-color="#f7b500"/>
    </linearGradient>
  </defs>
  <g id="mob-About" transform="translate(0 -1435)">
    <g id="mob-AboutContent" transform="translate(0 1435)">
      <g id="mob-AboutContent-2" data-name="mob-AboutContent">
        <rect id="Rectangle_44" data-name="Rectangle 44" class="cls-1" width="375" height="667"/>
        <path id="Subtraction_49" data-name="Subtraction 49" class="cls-2" d="M48.512,150.3,0,115.47V0H94.576V115.47L48.512,150.3ZM4.45,7.07V111.676L48.4,143.231l41.731-31.555V7.07Z" transform="translate(139.722 0.376)"/>
        <path id="Path_213" data-name="Path 213" class="cls-3" d="M0,0H73.694V94.507L37.57,121.995,0,94.507Z" transform="translate(150.292 13.408)"/>
        <g id="fevicon" transform="translate(155.942 26.445)">
          <g id="Me" transform="translate(0 0)">
            <g class="cls-13" transform="matrix(1, 0, 0, 1, -155.94, -26.44)">
              <path id="Body-2" data-name="Body" class="cls-4" d="M17.679,0h1.578A19.952,19.952,0,0,1,39.21,19.952v0a0,0,0,0,1,0,0H0a0,0,0,0,1,0,0V17.679A17.679,17.679,0,0,1,17.679,0Z" transform="translate(173.56 89.52)"/>
            </g>
            <path id="Neck" class="cls-5" d="M0,0H13.828a0,0,0,0,1,0,0V4.988a6.251,6.251,0,0,1-6.251,6.251h0A7.577,7.577,0,0,1,0,3.662V0A0,0,0,0,1,0,0Z" transform="translate(28.413 58.783)"/>
            <path id="Face" class="cls-6" d="M5.452,0h39a0,0,0,0,1,0,0V16.83a22,22,0,0,1-22,22h0A22.45,22.45,0,0,1,0,16.381V5.452A5.452,5.452,0,0,1,5.452,0Z" transform="translate(8.208 23.109)"/>
            <g id="Hair">
              <path id="Rectangle_12" data-name="Rectangle 12" class="cls-7" d="M0,0H40.157A10.923,10.923,0,0,1,51.08,10.923v2.336a0,0,0,0,1,0,0H13.259A13.259,13.259,0,0,1,0,0V0A0,0,0,0,1,0,0Z" transform="translate(1.578)"/>
              <path id="Rectangle_13" data-name="Rectangle 13" class="cls-8" d="M0,0H52.2a4.629,4.629,0,0,1,4.629,4.629v8.63a0,0,0,0,1,0,0H13.259A13.259,13.259,0,0,1,0,0V0A0,0,0,0,1,0,0Z" transform="translate(0 10.734)"/>
              <path id="Rectangle_18" data-name="Rectangle 18" class="cls-8" d="M0,0H0A4.8,4.8,0,0,1,4.8,4.8V16.29a0,0,0,0,1,0,0H0a0,0,0,0,1,0,0V0A0,0,0,0,1,0,0Z" transform="translate(52.659 10.734)"/>
            </g>
            <path id="Ear" class="cls-5" d="M0,0H2.683A6.851,6.851,0,0,1,9.534,6.851v0A6.851,6.851,0,0,1,2.683,13.7H0a0,0,0,0,1,0,0V0A0,0,0,0,1,0,0Z" transform="translate(52.659 27.024)"/>
            <path id="Smile" class="cls-9" d="M3195.45,2126.7H3215.6s1.545,9.768-9.39,9.9S3195.45,2126.7,3195.45,2126.7Z" transform="translate(-3176.732 -2079.487)"/>
            <g id="Eyes" transform="translate(17.616 32.517)">
              <circle id="Ellipse_10" data-name="Ellipse 10" class="cls-8" cx="1.989" cy="1.989" r="1.989"/>
              <circle id="Ellipse_11" data-name="Ellipse 11" class="cls-8" cx="1.989" cy="1.989" r="1.989" transform="translate(15.659)"/>
            </g>
          </g>
          <g id="Glasses2" transform="translate(10.327 28.214)">
            <path id="Subtraction_45" data-name="Subtraction 45" class="cls-10" d="M8.428,14.854a7.18,7.18,0,0,1-4.24-1.281A8.479,8.479,0,0,1,1.615,10.5,15.833,15.833,0,0,1,0,3.653C0,2.139.862,1.132,2.634.576A20.692,20.692,0,0,1,8.428,0a20.693,20.693,0,0,1,5.795.576c1.772.557,2.634,1.563,2.634,3.077A15.833,15.833,0,0,1,15.242,10.5a8.482,8.482,0,0,1-2.573,3.069A7.181,7.181,0,0,1,8.428,14.854Zm0-14.085C4.773.769.873,1.022.873,4.044a14.191,14.191,0,0,0,1.448,6.142,6.553,6.553,0,0,0,6.107,3.9,6.553,6.553,0,0,0,6.107-3.9,14.191,14.191,0,0,0,1.449-6.142C15.984,1.022,12.084.769,8.428.769Z" transform="translate(0 0)"/>
            <path id="Subtraction_44" data-name="Subtraction 44" class="cls-10" d="M8.428,14.854a7.18,7.18,0,0,1-4.24-1.281A8.479,8.479,0,0,1,1.615,10.5,15.833,15.833,0,0,1,0,3.653C0,2.139.862,1.132,2.634.576A20.692,20.692,0,0,1,8.428,0a20.693,20.693,0,0,1,5.795.576c1.772.557,2.634,1.563,2.634,3.077A15.833,15.833,0,0,1,15.242,10.5a8.482,8.482,0,0,1-2.573,3.069A7.181,7.181,0,0,1,8.428,14.854Zm0-14.085C4.773.769.873,1.022.873,4.044a14.191,14.191,0,0,0,1.448,6.142,6.553,6.553,0,0,0,6.107,3.9,6.553,6.553,0,0,0,6.107-3.9,14.191,14.191,0,0,0,1.449-6.142C15.984,1.022,12.084.769,8.428.769Z" transform="translate(18.964 0)"/>
            <line id="Line_15" data-name="Line 15" class="cls-11" x2="2.634" transform="translate(16.594 3.39)"/>
          </g>
        </g>
      </g>
    </g>
    <path id="Path_142" data-name="Path 142" class="cls-12" d="M8301.225-1530.047c358.317-2.777,359.3,27.018,375.269-102.973-.01,0,0,112.092,0,112.092l-375.269-.049Z" transform="translate(-8301.224 3622.928)"/>
  </g>
</svg>
